<svg id="Ebene_1" data-name="Ebene 1" viewBox="0 0 303.88 134.94" xmlns="http://www.w3.org/2000/svg" xmlns:xlink="http://www.w3.org/1999/xlink"><defs><style>.cls-1,.cls-10,.cls-11,.cls-12,.cls-2,.cls-3,.cls-4,.cls-8,.cls-9{fill:none}.cls-13,.cls-2,.cls-3,.cls-4,.cls-5,.cls-6,.cls-8,.cls-9{stroke:#1d1d1b}.cls-2{stroke-miterlimit:1.5;stroke-width:0.25px}.cls-10,.cls-11,.cls-12,.cls-13,.cls-3,.cls-4,.cls-5,.cls-6,.cls-8,.cls-9{stroke-linecap:round;stroke-linejoin:round}.cls-3,.cls-5{stroke-width:1.13px}.cls-12,.cls-4,.cls-6{stroke-width:0.28px}.cls-13,.cls-5,.cls-6,.cls-7{fill:#fff}.cls-11,.cls-13,.cls-8{stroke-width:0.57px}.cls-10,.cls-9{stroke-width:0.43px}.cls-10,.cls-11,.cls-12{stroke:#000}.cls-13{opacity:0.5}.cls-14{fill:url(#Kreuz-Schraffur_mittel_0_1)}.cls-15{fill:url(#Kreuz-Schraffur_mittel_0_1-3)}</style><pattern id="Kreuz-Schraffur_mittel_0_1" data-name="Kreuz-Schraffur mittel 0,1" width="8.87" height="8.86" patternTransform="matrix(0.15, 0, 0, -0.15, 0.87, 0.07)" patternUnits="userSpaceOnUse" viewBox="0 0 8.87 8.86"><rect class="cls-1" width="8.87" height="8.86"></rect><line class="cls-2" x1="11.57" y1="11.56" x2="0.09" y2="0.09"></line><line class="cls-2" x1="13.6" y1="4.43" x2="4.14" y2="13.9"></line><line class="cls-2" x1="2.7" y1="11.56" x2="-8.78" y2="0.09"></line><line class="cls-2" x1="4.73" y1="4.43" x2="-4.73" y2="13.9"></line><line class="cls-2" x1="11.57" y1="2.69" x2="0.09" y2="-8.77"></line><line class="cls-2" x1="13.6" y1="-4.43" x2="4.14" y2="5.04"></line><line class="cls-2" x1="2.7" y1="2.69" x2="-8.78" y2="-8.77"></line><line class="cls-2" x1="4.73" y1="-4.43" x2="-4.73" y2="5.04"></line></pattern><pattern id="Kreuz-Schraffur_mittel_0_1-3" data-name="Kreuz-Schraffur mittel 0,1" width="8.87" height="8.86" patternTransform="translate(0.87 0.07) scale(0.15)" patternUnits="userSpaceOnUse" viewBox="0 0 8.87 8.86"><rect class="cls-1" width="8.87" height="8.86"></rect><line class="cls-2" x1="11.57" y1="11.56" x2="0.09" y2="0.09"></line><line class="cls-2" x1="13.6" y1="4.43" x2="4.14" y2="13.9"></line><line class="cls-2" x1="2.7" y1="11.56" x2="-8.78" y2="0.09"></line><line class="cls-2" x1="4.73" y1="4.43" x2="-4.73" y2="13.9"></line><line class="cls-2" x1="11.57" y1="2.69" x2="0.09" y2="-8.77"></line><line class="cls-2" x1="13.6" y1="-4.43" x2="4.14" y2="5.04"></line><line class="cls-2" x1="2.7" y1="2.69" x2="-8.78" y2="-8.77"></line><line class="cls-2" x1="4.73" y1="-4.43" x2="-4.73" y2="5.04"></line></pattern></defs><path class="cls-3" d="M311.72,57a141,141,0,0,0-2.79-19.31s-.61-2.65-.77-3.21h0c-.19-9.42-.39-15.37-.39-15.37h.71s.41,0,.38-.18-.3-.78-.3-.78-.15-.51-1.09-.67-7.24-1-9.89-1.25-4.13-.39-6.83-.42c-2,0-5.23,0-7.92.06-2.58-.86-5.17-1.5-5.58-1.6l-.07,0c-2.47-1.19-4.87-2.14-5.56-2.42A12,12,0,0,0,268.4,11c-.78-.05-.9-.05-2.6-.12l-1.48-.06h0l-.19-.05c-4.29-.11-8.49-.18-12.46-.23l-.32-.08.17.07c-14.42-.16-25.83,0-27.77,0-2.48,0-8.3.15-10,.41-1.17.18-2,.78-4.13,2l-11.48.17a5.77,5.77,0,0,0-2.37.61l-.34.16,0-.06s-24.19-.08-51.13.17c.9-1.45,2-3.28,3.37-5.75a1.25,1.25,0,0,0,.12-.4.49.49,0,0,0,0-.12,1.12,1.12,0,0,0-.33-.4H147V7l-.11,0a13.63,13.63,0,0,0-6.08,0,7.32,7.32,0,0,0-4.17,2.43h0a45.75,45.75,0,0,0-4.75,4.8h-8.75a15,15,0,0,0-5-1.5c-1.53-.15-4.59,0-4.76,0a73.72,73.72,0,0,0-12.66-1.14c-.73-.23-1.14-.38-1.14-.38-20.46,0-41.67.33-41.67.33l-1.24.7h-.83l.35-.39.11-.13h.41l.06-.26a58.87,58.87,0,0,0-7,.31c-3.06.32-7.64.83-10.22,1.19A12.76,12.76,0,0,0,33.14,16a53.74,53.74,0,0,0-4.75,5.64C25.83,25,18.81,35.37,17.14,38A59,59,0,0,0,14,43.54a40.69,40.69,0,0,0-1.88,6.34A114.84,114.84,0,0,0,9.9,73.49a114.79,114.79,0,0,0,2.26,23.6A40.69,40.69,0,0,0,14,103.43a59,59,0,0,0,3.1,5.57c1.67,2.6,8.69,13,11.25,16.33A53.74,53.74,0,0,0,33.14,131a12.76,12.76,0,0,0,6.4,3.11c2.58.36,7.16.87,10.22,1.19a58.87,58.87,0,0,0,7,.31l-.06-.26h-.41l-.11-.13-.35-.39h.83l1.24.7s21.21.29,41.67.33c0,0,.41-.15,1.14-.38a73.72,73.72,0,0,0,12.66-1.14c.17,0,3.23.11,4.76,0a15.23,15.23,0,0,0,5-1.5h8.75a44.8,44.8,0,0,0,4.7,4.75s0,0,0,0v0a7.07,7.07,0,0,0,4.17,2.44,13.63,13.63,0,0,0,6.08,0l.11,0v-.31h.38a1.12,1.12,0,0,0,.33-.4.37.37,0,0,0,0-.11,1.35,1.35,0,0,0-.12-.41c-1.37-2.47-2.47-4.3-3.37-5.75,26.94.25,51.13.17,51.13.17l0-.06.34.16a5.77,5.77,0,0,0,2.37.61l11.46.17c2.14,1.19,3,1.8,4.15,2,1.7.26,7.52.41,10,.41,1.94,0,13.35.15,27.77,0l-.17.08.31-.08c4-.05,8.18-.12,12.47-.23l.19-.05h0l1.48-.06c1.7-.07,1.82-.07,2.6-.12a12.33,12.33,0,0,0,3.22-.8c.69-.28,3.09-1.24,5.56-2.43l.05,0c.39-.1,3-.74,5.6-1.6,2.69.07,5.94.07,7.92.06,2.7,0,4.17-.2,6.83-.42s8.95-1.09,9.89-1.25,1.09-.67,1.09-.67.27-.63.3-.78-.38-.18-.38-.18h-.71s.19-5.66.38-14.69c.33-1.74.78-3.9.78-3.9A141,141,0,0,0,311.72,90s.8-8.92.8-16.49v0C312.52,65.9,311.72,57,311.72,57Z" transform="translate(-9.2 -5.97)"></path><path class="cls-4" d="M311.72,57a141,141,0,0,0-2.79-19.31s-.61-2.65-.77-3.21h0c-.19-9.42-.39-15.37-.39-15.37h.71s.41,0,.38-.18-.3-.78-.3-.78-.15-.51-1.09-.67-7.24-1-9.89-1.25-4.13-.39-6.83-.42c-2,0-5.23,0-7.92.06-2.58-.86-5.17-1.5-5.58-1.6l-.07,0c-2.47-1.19-4.87-2.14-5.56-2.42A12,12,0,0,0,268.4,11c-.78-.05-.9-.05-2.6-.12l-1.48-.06h0l-.19-.05c-4.29-.11-8.49-.18-12.46-.23l-.32-.08.17.07c-14.42-.16-25.83,0-27.77,0-2.48,0-8.3.15-10,.41-1.17.18-2,.78-4.13,2l-11.48.17a5.77,5.77,0,0,0-2.37.61l-.34.16,0-.06s-24.19-.08-51.13.17c.9-1.45,2-3.28,3.37-5.75a1.25,1.25,0,0,0,.12-.4.49.49,0,0,0,0-.12,1.12,1.12,0,0,0-.33-.4H147V7l-.11,0a13.63,13.63,0,0,0-6.08,0,7.32,7.32,0,0,0-4.17,2.43h0a45.75,45.75,0,0,0-4.75,4.8h-8.75a15,15,0,0,0-5-1.5c-1.53-.15-4.59,0-4.76,0a73.72,73.72,0,0,0-12.66-1.14c-.73-.23-1.14-.38-1.14-.38-20.46,0-41.67.33-41.67.33l-1.24.7h-.83l.35-.39.11-.13h.41l.06-.26a58.87,58.87,0,0,0-7,.31c-3.06.32-7.64.83-10.22,1.19A12.76,12.76,0,0,0,33.14,16a53.74,53.74,0,0,0-4.75,5.64C25.83,25,18.81,35.37,17.14,38A59,59,0,0,0,14,43.54a40.69,40.69,0,0,0-1.88,6.34A114.84,114.84,0,0,0,9.9,73.49a114.79,114.79,0,0,0,2.26,23.6A40.69,40.69,0,0,0,14,103.43a59,59,0,0,0,3.1,5.57c1.67,2.6,8.69,13,11.25,16.33A53.74,53.74,0,0,0,33.14,131a12.76,12.76,0,0,0,6.4,3.11c2.58.36,7.16.87,10.22,1.19a58.87,58.87,0,0,0,7,.31l-.06-.26h-.41l-.11-.13-.35-.39h.83l1.24.7s21.21.29,41.67.33c0,0,.41-.15,1.14-.38a73.72,73.72,0,0,0,12.66-1.14c.17,0,3.23.11,4.76,0a15.23,15.23,0,0,0,5-1.5h8.75a44.8,44.8,0,0,0,4.7,4.75s0,0,0,0v0a7.07,7.07,0,0,0,4.17,2.44,13.63,13.63,0,0,0,6.08,0l.11,0v-.31h.38a1.12,1.12,0,0,0,.33-.4.37.37,0,0,0,0-.11,1.35,1.35,0,0,0-.12-.41c-1.37-2.47-2.47-4.3-3.37-5.75,26.94.25,51.13.17,51.13.17l0-.06.34.16a5.77,5.77,0,0,0,2.37.61l11.46.17c2.14,1.19,3,1.8,4.15,2,1.7.26,7.52.41,10,.41,1.94,0,13.35.15,27.77,0l-.17.08.31-.08c4-.05,8.18-.12,12.47-.23l.19-.05h0l1.48-.06c1.7-.07,1.82-.07,2.6-.12a12.33,12.33,0,0,0,3.22-.8c.69-.28,3.09-1.24,5.56-2.43l.05,0c.39-.1,3-.74,5.6-1.6,2.69.07,5.94.07,7.92.06,2.7,0,4.17-.2,6.83-.42s8.95-1.09,9.89-1.25,1.09-.67,1.09-.67.27-.63.3-.78-.38-.18-.38-.18h-.71s.19-5.66.38-14.69c.33-1.74.78-3.9.78-3.9A141,141,0,0,0,311.72,90s.8-8.92.8-16.49v0C312.52,65.9,311.72,57,311.72,57Z" transform="translate(-9.2 -5.97)"></path><path class="cls-4" d="M311.59,56.9a141,141,0,0,0-2.79-19.31s-.61-2.65-.77-3.21h0C307.84,25,307.64,19,307.64,19h.71s.41,0,.38-.18-.3-.78-.3-.78-.15-.51-1.09-.67-7.24-1-9.89-1.25-4.13-.39-6.83-.42c-2,0-5.23,0-7.92.06-2.58-.86-5.17-1.5-5.58-1.6l-.07,0c-2.47-1.19-4.87-2.14-5.56-2.42a12,12,0,0,0-3.22-.81c-.78-.05-.9-.05-2.6-.12l-1.48-.06h0l-.19-.05c-4.29-.11-8.49-.18-12.46-.23l-.32-.08.17.08c-14.42-.17-25.83,0-27.77,0-2.48,0-8.3.15-10,.41-1.17.18-2,.78-4.13,2L198,13a5.77,5.77,0,0,0-2.37.61l-.34.16,0-.06s-24.19-.08-51.13.17c.9-1.45,2-3.28,3.37-5.75a1.25,1.25,0,0,0,.12-.4.49.49,0,0,0,0-.12,1.12,1.12,0,0,0-.33-.4h-.38V6.9l-.1,0a13.69,13.69,0,0,0-6.09,0,7.25,7.25,0,0,0-4.16,2.43h0a44.7,44.7,0,0,0-4.74,4.8H123a15.12,15.12,0,0,0-5-1.5c-1.54-.15-4.6,0-4.77,0a73.72,73.72,0,0,0-12.66-1.14c-.73-.23-1.14-.38-1.14-.38-20.46,0-41.67.33-41.67.33l-1.24.7h-.83l.35-.39.11-.13h.41l.06-.26a58.87,58.87,0,0,0-7,.31c-3.06.32-7.64.83-10.22,1.19A12.76,12.76,0,0,0,33,15.92a53.74,53.74,0,0,0-4.75,5.64C25.7,24.93,18.68,35.29,17,37.89a59,59,0,0,0-3.1,5.57A40.69,40.69,0,0,0,12,49.8,114.84,114.84,0,0,0,9.77,73.41,114.79,114.79,0,0,0,12,97a40.69,40.69,0,0,0,1.88,6.34,59,59,0,0,0,3.1,5.57c1.67,2.6,8.69,13,11.25,16.33A53.74,53.74,0,0,0,33,130.89a12.76,12.76,0,0,0,6.4,3.11c2.58.36,7.16.87,10.22,1.19a58.87,58.87,0,0,0,7,.31l-.06-.26h-.41l-.11-.13-.35-.39h.83l1.24.7s21.21.29,41.67.33c0,0,.41-.15,1.14-.38a73.72,73.72,0,0,0,12.66-1.14c.17,0,3.23.11,4.77,0a15.37,15.37,0,0,0,5-1.5h8.75a43.76,43.76,0,0,0,4.69,4.75l.05.05h0a7.12,7.12,0,0,0,4.17,2.43,13.69,13.69,0,0,0,6.09,0l.1,0v-.31h.38a1.12,1.12,0,0,0,.33-.4.37.37,0,0,0,0-.11,1.35,1.35,0,0,0-.12-.41c-1.37-2.47-2.47-4.3-3.37-5.75,26.94.25,51.13.17,51.13.17l0-.06.34.16a5.77,5.77,0,0,0,2.37.61l11.46.17c2.14,1.19,3,1.8,4.15,2,1.7.26,7.52.41,10,.41,1.94,0,13.35.15,27.77,0l-.17.08.31-.08c4-.05,8.18-.12,12.47-.23l.19,0h0l1.48-.06c1.7-.07,1.82-.07,2.6-.12a12.33,12.33,0,0,0,3.22-.8c.69-.28,3.09-1.24,5.56-2.43l.05,0c.39-.09,3-.73,5.6-1.6,2.69.07,5.94.07,7.92.06,2.7,0,4.17-.2,6.83-.42s8.95-1.09,9.89-1.25,1.09-.67,1.09-.67.27-.63.3-.78-.38-.18-.38-.18h-.71s.19-5.66.38-14.69c.33-1.74.78-3.9.78-3.9a141,141,0,0,0,2.79-19.31s.8-8.92.8-16.49v0C312.39,65.82,311.59,56.9,311.59,56.9Z" transform="translate(-9.2 -5.97)"></path><path class="cls-5" d="M311.59,56.9a141,141,0,0,0-2.79-19.31s-.61-2.65-.77-3.21h0C307.84,25,307.64,19,307.64,19h.71s.41,0,.38-.18-.3-.78-.3-.78-.15-.51-1.09-.67-7.24-1-9.89-1.25-4.13-.39-6.83-.42c-2,0-5.23,0-7.92.06-2.58-.86-5.17-1.5-5.58-1.6l-.07,0c-2.47-1.19-4.87-2.14-5.56-2.42a12,12,0,0,0-3.22-.81c-.78-.05-.9-.05-2.6-.12l-1.48-.06h0l-.19-.05c-4.29-.11-8.49-.18-12.46-.23l-.32-.08.17.08c-14.42-.17-25.83,0-27.77,0-2.48,0-8.3.15-10,.41-1.17.18-2,.78-4.13,2L198,13a5.77,5.77,0,0,0-2.37.61l-.34.16,0-.06s-24.19-.08-51.13.17c.9-1.45,2-3.28,3.37-5.75a1.25,1.25,0,0,0,.12-.4.49.49,0,0,0,0-.12,1.12,1.12,0,0,0-.33-.4h-.38V6.9l-.1,0a13.69,13.69,0,0,0-6.09,0,7.25,7.25,0,0,0-4.16,2.43h0a44.7,44.7,0,0,0-4.74,4.8H123a15.12,15.12,0,0,0-5-1.5c-1.54-.15-4.6,0-4.77,0a73.72,73.72,0,0,0-12.66-1.14c-.73-.23-1.14-.38-1.14-.38-20.46,0-41.67.33-41.67.33l-1.24.7h-.83l.35-.39.11-.13h.41l.06-.26a58.87,58.87,0,0,0-7,.31c-3.06.32-7.64.83-10.22,1.19A12.76,12.76,0,0,0,33,15.92a53.74,53.74,0,0,0-4.75,5.64C25.7,24.93,18.68,35.29,17,37.89a59,59,0,0,0-3.1,5.57A40.69,40.69,0,0,0,12,49.8,114.84,114.84,0,0,0,9.77,73.41,114.79,114.79,0,0,0,12,97a40.69,40.69,0,0,0,1.88,6.34,59,59,0,0,0,3.1,5.57c1.67,2.6,8.69,13,11.25,16.33A53.74,53.74,0,0,0,33,130.89a12.76,12.76,0,0,0,6.4,3.11c2.58.36,7.16.87,10.22,1.19a58.87,58.87,0,0,0,7,.31l-.06-.26h-.41l-.11-.13-.35-.39h.83l1.24.7s21.21.29,41.67.33c0,0,.41-.15,1.14-.38a73.72,73.72,0,0,0,12.66-1.14c.17,0,3.23.11,4.77,0a15.37,15.37,0,0,0,5-1.5h8.75a43.76,43.76,0,0,0,4.69,4.75l.05.05h0a7.12,7.12,0,0,0,4.17,2.43,13.69,13.69,0,0,0,6.09,0l.1,0v-.31h.38a1.12,1.12,0,0,0,.33-.4.37.37,0,0,0,0-.11,1.35,1.35,0,0,0-.12-.41c-1.37-2.47-2.47-4.3-3.37-5.75,26.94.25,51.13.17,51.13.17l0-.06.34.16a5.77,5.77,0,0,0,2.37.61l11.46.17c2.14,1.19,3,1.8,4.15,2,1.7.26,7.52.41,10,.41,1.94,0,13.35.15,27.77,0l-.17.08.31-.08c4-.05,8.18-.12,12.47-.23l.19,0h0l1.48-.06c1.7-.07,1.82-.07,2.6-.12a12.33,12.33,0,0,0,3.22-.8c.69-.28,3.09-1.24,5.56-2.43l.05,0c.39-.09,3-.73,5.6-1.6,2.69.07,5.94.07,7.92.06,2.7,0,4.17-.2,6.83-.42s8.95-1.09,9.89-1.25,1.09-.67,1.09-.67.27-.63.3-.78-.38-.18-.38-.18h-.71s.19-5.66.38-14.69c.33-1.74.78-3.9.78-3.9a141,141,0,0,0,2.79-19.31s.8-8.92.8-16.49v0C312.39,65.82,311.59,56.9,311.59,56.9Z" transform="translate(-9.2 -5.97)"></path><path class="cls-6" d="M311.59,56.9a141,141,0,0,0-2.79-19.31s-.61-2.65-.77-3.21h0C307.84,25,307.64,19,307.64,19h.71s.41,0,.38-.18-.3-.78-.3-.78-.15-.51-1.09-.67-7.24-1-9.89-1.25-4.13-.39-6.83-.42c-2,0-5.23,0-7.92.06-2.58-.86-5.17-1.5-5.58-1.6l-.07,0c-2.47-1.19-4.87-2.14-5.56-2.42a12,12,0,0,0-3.22-.81c-.78-.05-.9-.05-2.6-.12l-1.48-.06h0l-.19-.05c-4.29-.11-8.49-.18-12.46-.23l-.32-.08.17.08c-14.42-.17-25.83,0-27.77,0-2.48,0-8.3.15-10,.41-1.17.18-2,.78-4.13,2L198,13a5.77,5.77,0,0,0-2.37.61l-.34.16,0-.06s-24.19-.08-51.13.17c.9-1.45,2-3.28,3.37-5.75a1.25,1.25,0,0,0,.12-.4.49.49,0,0,0,0-.12,1.12,1.12,0,0,0-.33-.4h-.38V6.9l-.1,0a13.69,13.69,0,0,0-6.09,0,7.25,7.25,0,0,0-4.16,2.43h0a44.7,44.7,0,0,0-4.74,4.8H123a15.12,15.12,0,0,0-5-1.5c-1.54-.15-4.6,0-4.77,0a73.72,73.72,0,0,0-12.66-1.14c-.73-.23-1.14-.38-1.14-.38-20.46,0-41.67.33-41.67.33l-1.24.7h-.83l.35-.39.11-.13h.41l.06-.26a58.87,58.87,0,0,0-7,.31c-3.06.32-7.64.83-10.22,1.19A12.76,12.76,0,0,0,33,15.92a53.74,53.74,0,0,0-4.75,5.64C25.7,24.93,18.68,35.29,17,37.89a59,59,0,0,0-3.1,5.57A40.69,40.69,0,0,0,12,49.8,114.84,114.84,0,0,0,9.77,73.41,114.79,114.79,0,0,0,12,97a40.69,40.69,0,0,0,1.88,6.34,59,59,0,0,0,3.1,5.57c1.67,2.6,8.69,13,11.25,16.33A53.74,53.74,0,0,0,33,130.89a12.76,12.76,0,0,0,6.4,3.11c2.58.36,7.16.87,10.22,1.19a58.87,58.87,0,0,0,7,.31l-.06-.26h-.41l-.11-.13-.35-.39h.83l1.24.7s21.21.29,41.67.33c0,0,.41-.15,1.14-.38a73.72,73.72,0,0,0,12.66-1.14c.17,0,3.23.11,4.77,0a15.37,15.37,0,0,0,5-1.5h8.75a43.76,43.76,0,0,0,4.69,4.75l.05.05h0a7.12,7.12,0,0,0,4.17,2.43,13.69,13.69,0,0,0,6.09,0l.1,0v-.31h.38a1.12,1.12,0,0,0,.33-.4.37.37,0,0,0,0-.11,1.35,1.35,0,0,0-.12-.41c-1.37-2.47-2.47-4.3-3.37-5.75,26.94.25,51.13.17,51.13.17l0-.06.34.16a5.77,5.77,0,0,0,2.37.61l11.46.17c2.14,1.19,3,1.8,4.15,2,1.7.26,7.52.41,10,.41,1.94,0,13.35.15,27.77,0l-.17.08.31-.08c4-.05,8.18-.12,12.47-.23l.19,0h0l1.48-.06c1.7-.07,1.82-.07,2.6-.12a12.33,12.33,0,0,0,3.22-.8c.69-.28,3.09-1.24,5.56-2.43l.05,0c.39-.09,3-.73,5.6-1.6,2.69.07,5.94.07,7.92.06,2.7,0,4.17-.2,6.83-.42s8.95-1.09,9.89-1.25,1.09-.67,1.09-.67.27-.63.3-.78-.38-.18-.38-.18h-.71s.19-5.66.38-14.69c.33-1.74.78-3.9.78-3.9a141,141,0,0,0,2.79-19.31s.8-8.92.8-16.49v0C312.39,65.82,311.59,56.9,311.59,56.9Z" transform="translate(-9.2 -5.97)"></path><path class="cls-7" d="M311.59,56.9a141,141,0,0,0-2.79-19.31s-.61-2.65-.77-3.21h0C307.84,25,307.64,19,307.64,19h.71s.41,0,.38-.18-.3-.78-.3-.78-.15-.51-1.09-.67-7.24-1-9.89-1.25-4.13-.39-6.83-.42c-2,0-5.23,0-7.92.06-2.58-.86-5.17-1.5-5.58-1.6l-.07,0c-2.47-1.19-4.87-2.14-5.56-2.42a12,12,0,0,0-3.22-.81c-.78-.05-.9-.05-2.6-.12l-1.48-.06h0l-.19-.05c-4.29-.11-8.49-.18-12.46-.23l-.32-.08.17.08c-14.42-.17-25.83,0-27.77,0-2.48,0-8.3.15-10,.41-1.17.18-2,.78-4.13,2L198,13a5.77,5.77,0,0,0-2.37.61l-.34.16,0-.06s-24.19-.08-51.13.17c.9-1.45,2-3.28,3.37-5.75a1.25,1.25,0,0,0,.12-.4.49.49,0,0,0,0-.12,1.12,1.12,0,0,0-.33-.4h-.38V6.9l-.1,0a13.69,13.69,0,0,0-6.09,0,7.25,7.25,0,0,0-4.16,2.43h0a44.7,44.7,0,0,0-4.74,4.8H123a15.12,15.12,0,0,0-5-1.5c-1.54-.15-4.6,0-4.77,0a73.72,73.72,0,0,0-12.66-1.14c-.73-.23-1.14-.38-1.14-.38-20.46,0-41.67.33-41.67.33l-1.24.7h-.83l.35-.39.11-.13h.41l.06-.26a58.87,58.87,0,0,0-7,.31c-3.06.32-7.64.83-10.22,1.19A12.76,12.76,0,0,0,33,15.92a53.74,53.74,0,0,0-4.75,5.64C25.7,24.93,18.68,35.29,17,37.89a59,59,0,0,0-3.1,5.57A40.69,40.69,0,0,0,12,49.8,114.84,114.84,0,0,0,9.77,73.41,114.79,114.79,0,0,0,12,97a40.69,40.69,0,0,0,1.88,6.34,59,59,0,0,0,3.1,5.57c1.67,2.6,8.69,13,11.25,16.33A53.74,53.74,0,0,0,33,130.89a12.76,12.76,0,0,0,6.4,3.11c2.58.36,7.16.87,10.22,1.19a58.87,58.87,0,0,0,7,.31l-.06-.26h-.41l-.11-.13-.35-.39h.83l1.24.7s21.21.29,41.67.33c0,0,.41-.15,1.14-.38a73.72,73.72,0,0,0,12.66-1.14c.17,0,3.23.11,4.77,0a15.37,15.37,0,0,0,5-1.5h8.75a43.76,43.76,0,0,0,4.69,4.75l.05.05h0a7.12,7.12,0,0,0,4.17,2.43,13.69,13.69,0,0,0,6.09,0l.1,0v-.31h.38a1.12,1.12,0,0,0,.33-.4.37.37,0,0,0,0-.11,1.35,1.35,0,0,0-.12-.41c-1.37-2.47-2.47-4.3-3.37-5.75,26.94.25,51.13.17,51.13.17l0-.06.34.16a5.77,5.77,0,0,0,2.37.61l11.46.17c2.14,1.19,3,1.8,4.15,2,1.7.26,7.52.41,10,.41,1.94,0,13.35.15,27.77,0l-.17.08.31-.08c4-.05,8.18-.12,12.47-.23l.19,0h0l1.48-.06c1.7-.07,1.82-.07,2.6-.12a12.33,12.33,0,0,0,3.22-.8c.69-.28,3.09-1.24,5.56-2.43l.05,0c.39-.09,3-.73,5.6-1.6,2.69.07,5.94.07,7.92.06,2.7,0,4.17-.2,6.83-.42s8.95-1.09,9.89-1.25,1.09-.67,1.09-.67.27-.63.3-.78-.38-.18-.38-.18h-.71s.19-5.66.38-14.69c.33-1.74.78-3.9.78-3.9a141,141,0,0,0,2.79-19.31s.8-8.92.8-16.49v0C312.39,65.82,311.59,56.9,311.59,56.9Z" transform="translate(-9.2 -5.97)"></path><path class="cls-8" d="M92.72,73.5c0-37.31,20.25-46.83,25.72-48.57a33.67,33.67,0,0,1,5.08-.82" transform="translate(-9.2 -5.97)"></path><path class="cls-9" d="M219.64,73.48" transform="translate(-9.2 -5.97)"></path><path class="cls-10" d="M102,90.34c.74,2.82,2.48,9.27,3.22,11.85l.65-.14c-3.93-13.65-8.17-33-8.17-33l-.64.15s1.51,6.94,3.58,15.44" transform="translate(-9.2 -5.97)"></path><path class="cls-10" d="M100.94,88s1.16,5.78,1.39,7.68c0,0,.26,2.19.55,4.86s.41,5.08.41,5.08l.12,1.68a1.62,1.62,0,0,1,.24.87c0,.48-.2,2.59-.2,2.59" transform="translate(-9.2 -5.97)"></path><path class="cls-11" d="M103.43,99.35s1.39,6.93,1.52,7.53l.18.56a2.23,2.23,0,0,1,.3,1.48,7.76,7.76,0,0,0,0,4.07" transform="translate(-9.2 -5.97)"></path><path class="cls-11" d="M103.43,99.44l-.18-1.22c-.7-5.37-1.71-9.83-1.71-9.83A5.24,5.24,0,0,1,101,88a1,1,0,0,1-.32-.41c-.08-.32-.51-2.52-.51-2.52l.29-.34.68-.14" transform="translate(-9.2 -5.97)"></path><line class="cls-12" x1="95.32" y1="100.94" x2="94.23" y2="93.46"></line><line class="cls-10" x1="91.2" y1="79.08" x2="91.63" y2="79.02"></line><line class="cls-10" x1="91.94" y1="78.68" x2="91.78" y2="78.88"></line><line class="cls-10" x1="91.76" y1="79.23" x2="92.44" y2="82.17"></line><path class="cls-10" d="M106.41,42.94l-.51-.27s-.49-.28-.7.19-.92,2-.92,2l-.14.88-1,2.12.28.17.13.16.82-1.75.62-.72h.27Z" transform="translate(-9.2 -5.97)"></path><line class="cls-10" x1="95.74" y1="39.36" x2="96.69" y2="37.1"></line><path class="cls-10" d="M103.16,47.85s-1.35,2.76-6.34,14.54c0,0-3.33,6.53-3.78,7.37" transform="translate(-9.2 -5.97)"></path><path class="cls-10" d="M103.49,48.1s-1.36,2.76-6.35,14.54l0,.28s-1.28,5-1.56,5.94a7.62,7.62,0,0,1-.86,2.23" transform="translate(-9.2 -5.97)"></path><line class="cls-10" x1="85.62" y1="63.23" x2="87.81" y2="56.95"></line><path class="cls-10" d="M104.44,46.37" transform="translate(-9.2 -5.97)"></path><path class="cls-10" d="M106.13,42.64c1.75-3.83,3.69-8,5.57-11.77l.45.18c-5.63,11.4-11.85,25.89-11.85,25.89l-.42-.21" transform="translate(-9.2 -5.97)"></path><path class="cls-10" d="M94.82,70.51a7,7,0,0,0-.35,2.36c.07,1.21.16,2.64.26,3a3.19,3.19,0,0,1,0,1.37.86.86,0,0,1-.94.71.82.82,0,0,1-.73-.37" transform="translate(-9.2 -5.97)"></path><line class="cls-10" x1="84.77" y1="63.15" x2="85.25" y2="63.47"></line><path class="cls-10" d="M94.57,69.66s-.27.54.11.81" transform="translate(-9.2 -5.97)"></path><path class="cls-10" d="M94.38,77.07a.7.7,0,0,1-.73.65.69.69,0,0,1-.55-.8.7.7,0,0,1,.73-.65A.69.69,0,0,1,94.38,77.07Z" transform="translate(-9.2 -5.97)"></path><path class="cls-8" d="M92.72,73.27" transform="translate(-9.2 -5.97)"></path><path class="cls-4" d="M106.85,17.93c0,1.69-3.3,2.88-7.15,2.65S93,18.75,93.09,17.06c.06-.86.74-1.53,2-1.85a20.87,20.87,0,0,1,9.13.65C105.82,16.38,106.85,17,106.85,17.93Z" transform="translate(-9.2 -5.97)"></path><path class="cls-12" d="M135.59,73.42a1.91,1.91,0,0,0,1.66,1.83c1,.26,1,.81,1.07,1.13s.09,1.08.18,2.91a2.35,2.35,0,0,0,1.62,2.23s3.23.87,4.59,1.14a1.43,1.43,0,0,1,1.23,1.55c.08,7.8,2.06,20.06,2.58,22.64s-.47,3.23-1.83,4-7.73,2.6-13.61,4.13a70.61,70.61,0,0,1-13.93,2.27,3.92,3.92,0,0,1-3.13-1.54s-11-17.07-12.7-35.68a2.71,2.71,0,0,0-.26-.93,3.27,3.27,0,0,1-.68-1.75V73.38" transform="translate(-9.2 -5.97)"></path><path class="cls-12" d="M117.7,120.9s-9.41-8.11-12.55-14.55" transform="translate(-9.2 -5.97)"></path><path class="cls-12" d="M102.84,101.68a69,69,0,0,1-6.23-28.23" transform="translate(-9.2 -5.97)"></path><path class="cls-8" d="M239.33,32.74a5.75,5.75,0,0,0-2-.91l-3-.6c-7.74-1.55-29.9-4-40.11-5s-27.46-1.53-36.53-1.74c-6.53-.15-22.25.22-31.36.3" transform="translate(-9.2 -5.97)"></path><path class="cls-8" d="M22.11,47.68C23.84,47,63,34.06,101.28,28c0,0,7.83-1.12,12.92-1.25" transform="translate(-9.2 -5.97)"></path><path class="cls-8" d="M18,73.37c0-14.79,2.77-23.77,2.77-23.77a3.22,3.22,0,0,1,1.37-1.92" transform="translate(-9.2 -5.97)"></path><path class="cls-9" d="M30.68,29.55" transform="translate(-9.2 -5.97)"></path><path class="cls-8" d="M22.11,47.68c.11-.29,3.7-10.09,7-15.33s4-6.89,6.66-9.49a21.13,21.13,0,0,1,5.55-4c2.43-1.18,6.39-2.75,8.49-3.56A35.11,35.11,0,0,0,55.06,13l2.87-1.62S79.14,11.06,99.6,11a56.93,56.93,0,0,0,14,2.81c7.59.5,12.06.73,17.53,1" transform="translate(-9.2 -5.97)"></path><path class="cls-8" d="M21.8,48.62" transform="translate(-9.2 -5.97)"></path><path class="cls-9" d="M40.75,19.21" transform="translate(-9.2 -5.97)"></path><path class="cls-9" d="M152.29,30.68" transform="translate(-9.2 -5.97)"></path><path class="cls-8" d="M123,24.28" transform="translate(-9.2 -5.97)"></path><path class="cls-4" d="M195.38,25.11c-10.21-1-27.77-1.46-36.83-1.66-7.6-.17-26.59.12-35.16.59" transform="translate(-9.2 -5.97)"></path><path class="cls-4" d="M240.45,32.09c0-.76-2.1-1.44-2.1-1.44" transform="translate(-9.2 -5.97)"></path><path class="cls-4" d="M123.35,24.74l24.81,6.55c.38.1,9.18,2.48,13,3.13,0,0,6.23,1.35,27.19,2.14s36.75.84,36.75.84c24,0,55.67,2.77,55.67,2.77" transform="translate(-9.2 -5.97)"></path><path class="cls-8" d="M123.52,24.11l24.81,6.55s9.1,2.47,13,3.12,13,1.09,18.61,1.24c16.26.41,50.16-1,58.07-1.74,2.4-.24,2.47-1.24,2.47-1.24" transform="translate(-9.2 -5.97)"></path><path class="cls-4" d="M59.1,24.71c10.16-.54,37.76-1.56,60-1.7" transform="translate(-9.2 -5.97)"></path><path class="cls-9" d="M223.62,63.64" transform="translate(-9.2 -5.97)"></path><path class="cls-9" d="M220.6,64.63" transform="translate(-9.2 -5.97)"></path><path class="cls-9" d="M220.08,64.94" transform="translate(-9.2 -5.97)"></path><path class="cls-9" d="M222.53,64.2" transform="translate(-9.2 -5.97)"></path><path class="cls-9" d="M26.23,73.37A5,5,0,0,0,26,71.59H24s-1.71.33-1.71,1.78" transform="translate(-9.2 -5.97)"></path><path class="cls-9" d="M193.58,26.29s1,.77,5.92,8.65" transform="translate(-9.2 -5.97)"></path><path class="cls-4" d="M222.44,73.38V46.68c0-4.4,5.17-3.89,5.17-3.89L260,44s4.13.79,4.91,8.91,1.25,15.86,1.25,20.32" transform="translate(-9.2 -5.97)"></path><path class="cls-9" d="M215.2,44.9" transform="translate(-9.2 -5.97)"></path><path class="cls-9" d="M220.92,64.77" transform="translate(-9.2 -5.97)"></path><path class="cls-8" d="M137.89,19.4a2.54,2.54,0,0,1-2.18,1.19h-4a2.47,2.47,0,0,1-2.53-2.41,2.27,2.27,0,0,1,.28-1.09,58.51,58.51,0,0,1,7.2-7.81" transform="translate(-9.2 -5.97)"></path><path class="cls-9" d="M224.1,39.26" transform="translate(-9.2 -5.97)"></path><path class="cls-9" d="M219.64,43.32" transform="translate(-9.2 -5.97)"></path><path class="cls-9" d="M219.64,73.27" transform="translate(-9.2 -5.97)"></path><path class="cls-4" d="M151.38,38.58s37.65,2.14,68.22,4.2" transform="translate(-9.2 -5.97)"></path><path class="cls-8" d="M269.57,73.22c0-19.58-2.85-29.92-3.14-31.14,0,0-.21-.81-.37-1.4" transform="translate(-9.2 -5.97)"></path><path class="cls-8" d="M265,40.8" transform="translate(-9.2 -5.97)"></path><path class="cls-8" d="M224.1,39.26" transform="translate(-9.2 -5.97)"></path><line class="cls-8" x1="210.44" y1="67.4" x2="210.44" y2="37.35"></line><path class="cls-4" d="M45.38,36c-6.54,1.35-12.18-.08-13.3-3.67-1.28-4.14,4-9.6,11.74-12.17a24.49,24.49,0,0,1,7.51-1.29" transform="translate(-9.2 -5.97)"></path><path class="cls-4" d="M53.16,26.64a12.48,12.48,0,0,1-4,5.32C45.29,35,40.74,35.55,39,33.13s-.08-6.85,3.77-9.91S51.14,19.63,52.9,22a3.4,3.4,0,0,1,.38.67" transform="translate(-9.2 -5.97)"></path><path class="cls-4" d="M54.65,26.8A15.61,15.61,0,0,1,49.85,33a15.83,15.83,0,0,1-5.56,2.92" transform="translate(-9.2 -5.97)"></path><path class="cls-4" d="M52.69,19.4a4.23,4.23,0,0,1,1.79,1.39,4.43,4.43,0,0,1,.81,2.14" transform="translate(-9.2 -5.97)"></path><path class="cls-4" d="M57.42,26.64l-5.94-.38A8.72,8.72,0,0,1,52,23l5.92.48" transform="translate(-9.2 -5.97)"></path><path class="cls-4" d="M51.63,23.19a2.33,2.33,0,0,0-2.07,1.42" transform="translate(-9.2 -5.97)"></path><path class="cls-4" d="M49.21,24.65s-6.33,1.77-9,6.52" transform="translate(-9.2 -5.97)"></path><path class="cls-4" d="M49.42,24.66a1.16,1.16,0,0,0,.69,1.12" transform="translate(-9.2 -5.97)"></path><path class="cls-4" d="M51.45,24.52a8.5,8.5,0,0,1-1.66,1.75c-1.06.84-3.63,4-7.58,5.33" transform="translate(-9.2 -5.97)"></path><path class="cls-4" d="M38.69,31.6s3.26.54,9.7-.72" transform="translate(-9.2 -5.97)"></path><polyline class="cls-4" points="40.13 25.45 39.58 24.75 39.71 23.9 41.73 23.84"></polyline><line class="cls-4" x1="40.23" y1="18.17" x2="34.59" y2="16.89"></line><path class="cls-13" d="M57.56,21.92c1.82,3.64-1.39,9.14-7.17,12.27s-12,2.73-13.77-.92S38,24.13,43.78,21,55.73,18.27,57.56,21.92Z" transform="translate(-9.2 -5.97)"></path><path class="cls-8" d="M57.56,21.92c1.82,3.64-1.39,9.14-7.17,12.27s-12,2.73-13.77-.92S38,24.13,43.78,21,55.73,18.27,57.56,21.92Z" transform="translate(-9.2 -5.97)"></path><path class="cls-9" d="M198.68,18" transform="translate(-9.2 -5.97)"></path><path class="cls-9" d="M194.35,26.29s4.69-4.9,4.69-8.1c0,0-.25-1.35-3-1.27" transform="translate(-9.2 -5.97)"></path><path class="cls-4" d="M195.35,25.11s16.34,1.27,25.84,2.62,14.29,2.13,17.16,2.92" transform="translate(-9.2 -5.97)"></path><path class="cls-9" d="M264.74,40.68" transform="translate(-9.2 -5.97)"></path><path class="cls-8" d="M192.92,17c4.13,0,9-.36,12.79-2.19,5.31-2.57,6.33-3.74,8-4s7.52-.41,10-.41,20.44-.25,40.38.25l.36.1c.26.08.65.2,1.15.38,1,.36,6.48,2.57,8.4,3.29s2.84,1.21,4.05,1.57" transform="translate(-9.2 -5.97)"></path><path class="cls-8" d="M180.63,16.65c6.72.18,7,.2,7.75.23l.73,0" transform="translate(-9.2 -5.97)"></path><path class="cls-8" d="M143.54,15.7l33.84.86" transform="translate(-9.2 -5.97)"></path><path class="cls-8" d="M312.52,73.38c0-7.58-.8-16.52-.8-16.52a141,141,0,0,0-2.79-19.31s-.62-2.68-.77-3.22" transform="translate(-9.2 -5.97)"></path><path class="cls-8" d="M59,12.77" transform="translate(-9.2 -5.97)"></path><path class="cls-8" d="M29.68,20.76" transform="translate(-9.2 -5.97)"></path><path class="cls-4" d="M10.81,73.39c0-7.23.92-16.15.92-16.15s1.19-7.75,1.89-10a29.18,29.18,0,0,1,3.31-7.15c1.62-2.55,7-11,9.05-13.85s5.61-6.73,8.58-8.33,11.56-4.25,17.69-5c0,0,1.73-.16,3.24-.24" transform="translate(-9.2 -5.97)"></path><path class="cls-12" d="M135.59,73.34a1.91,1.91,0,0,1,1.66-1.83c1-.27,1-.82,1.07-1.14s.09-1.07.18-2.9a2.36,2.36,0,0,1,1.62-2.24s3.23-.87,4.59-1.13a1.44,1.44,0,0,0,1.23-1.56c.08-7.8,2.06-20,2.58-22.64s-.47-3.22-1.83-3.95-7.73-2.6-13.61-4.13a71.15,71.15,0,0,0-13.93-2.26A3.92,3.92,0,0,0,116,31.1s-11,17.06-12.7,35.67a2.79,2.79,0,0,1-.26.94,3.2,3.2,0,0,0-.68,1.74v3.92" transform="translate(-9.2 -5.97)"></path><path class="cls-4" d="M117.7,25.85" transform="translate(-9.2 -5.97)"></path><path class="cls-12" d="M96.61,73.31a69,69,0,0,1,6.23-28.24s1.55-3.36,2.31-4.66c0,0,4.94-10.25,12.55-14.56" transform="translate(-9.2 -5.97)"></path><path class="cls-12" d="M104.71,107.91a13.42,13.42,0,0,0-.3,3.84" transform="translate(-9.2 -5.97)"></path><line class="cls-12" x1="94.56" y1="101.38" x2="95.43" y2="101.33"></line><path class="cls-12" d="M93.27,83.73s1.34,1,1.8,1.31a1.65,1.65,0,0,1,.87,1.28c.12.66,2.37,11.35,5.2,16.19a4.74,4.74,0,0,1,.7,1.92c.06,1,.33,3.9.3,4.62" transform="translate(-9.2 -5.97)"></path><path class="cls-12" d="M93.34,62.51l1.88-1.18a2.43,2.43,0,0,0,.91-1.43A62.33,62.33,0,0,1,110.6,29.57" transform="translate(-9.2 -5.97)"></path><path class="cls-4" d="M241.75,31.73s19.58.75,36.58,4.09" transform="translate(-9.2 -5.97)"></path><path class="cls-8" d="M57.93,11.35" transform="translate(-9.2 -5.97)"></path><path class="cls-8" d="M113.58,13.83a4,4,0,0,0,.75,2.08,37.36,37.36,0,0,0,4.87,6.17s.48.46,1,.9,1.56,1.32,1.56,1.32" transform="translate(-9.2 -5.97)"></path><path class="cls-4" d="M100.39,12a58.76,58.76,0,0,0,12.16,2.06" transform="translate(-9.2 -5.97)"></path><path class="cls-4" d="M99.83,12.48s-8.46,0-13,.31a2.58,2.58,0,0,0-1.42.38c-.37.37-.31.7.15,1.58S88.08,19.29,88.6,20a3.3,3.3,0,0,0,1.75,1.46,16.49,16.49,0,0,0,3,.7v.12" transform="translate(-9.2 -5.97)"></path><path class="cls-8" d="M99.83,12.48V12s-21.06.12-29,.28a1.45,1.45,0,0,0-.94.31c-.37.35-.34.57,0,1.22s3.34,5.49,4.94,6.7,1.9,1.4,3.87,1.49,11.25.25,14.64.28l.11-.5a15.63,15.63,0,0,1-3-.78c-.81-.31-1-.84-1.49-1.51s-2.58-4.31-3-5.21-.36-.89-.23-1A2.15,2.15,0,0,1,86.82,13c4.51-.29,12.92-.56,13-.56" transform="translate(-9.2 -5.97)"></path><path class="cls-4" d="M83.64,12.14s-4,.63-5,.8c0,0-1.48.18-.89,1.14s3.08,5,3.6,5.63a3.75,3.75,0,0,0,2,1.46,29,29,0,0,0,3.27.77" transform="translate(-9.2 -5.97)"></path><path class="cls-8" d="M86.36,15.06s10.51-1.37,11.82-1.6,1.34-.23,1.32-.88" transform="translate(-9.2 -5.97)"></path><path class="cls-8" d="M100.74,11.4a74.85,74.85,0,0,1,12.66,1.14,14.38,14.38,0,0,1,3.12,1,3.86,3.86,0,0,1,.78.56" transform="translate(-9.2 -5.97)"></path><path class="cls-8" d="M113.4,12.54c.17,0,3.23-.11,4.77,0a16.39,16.39,0,0,1,5.66,1.81" transform="translate(-9.2 -5.97)"></path><path class="cls-8" d="M305.23,53a.31.31,0,0,0-.15-.26s-.3-.21-.61-.39a2.57,2.57,0,0,0-.91-.19s-26.83-.64-28.5-.66-2.81-.06-3.47,0a5.35,5.35,0,0,0-1.51.52.37.37,0,0,0-.16.3s0,.12.31.43a8.76,8.76,0,0,0,.86.72,1.55,1.55,0,0,0,.79.14l8.78.11a1.85,1.85,0,0,1,.61.14,1.54,1.54,0,0,0,.9.38l19.93.19.62-.75,1.76-.05s.41,0,.49-.09A.86.86,0,0,0,305.23,53Z" transform="translate(-9.2 -5.97)"></path><path class="cls-4" d="M270.33,52.37s16.89.8,34.67.61" transform="translate(-9.2 -5.97)"></path><path class="cls-8" d="M286.21,54.31c.09,8.4.16,19,.16,19" transform="translate(-9.2 -5.97)"></path><path class="cls-8" d="M281.21,18S283,26.88,284,31.73s2.07,8.66,2.19,16.66c0,1,0,2.15.05,3.39" transform="translate(-9.2 -5.97)"></path><path class="cls-4" d="M287.15,54.57c.11,8.13.22,18.81.22,18.81" transform="translate(-9.2 -5.97)"></path><path class="cls-4" d="M282.46,18.71c.56,2.82,1.68,8.48,2.41,12,1,4.85,2.06,8.66,2.18,16.66,0,1.22,0,2.65.06,4.19" transform="translate(-9.2 -5.97)"></path><line class="cls-8" x1="288.88" y1="48.61" x2="288.88" y2="67.4"></line><line class="cls-8" x1="288.88" y1="12.89" x2="288.88" y2="45.94"></line><line class="cls-4" x1="294.75" y1="47.86" x2="294.75" y2="67.4"></line><line class="cls-4" x1="294.75" y1="12.89" x2="294.75" y2="46.1"></line><path class="cls-8" d="M307.77,19s.87,25.44.68,54.42" transform="translate(-9.2 -5.97)"></path><path class="cls-8" d="M280.18,15.83c2.79-.18,7.86-.19,10.57-.16s4.17.19,6.83.41,8.95,1.1,9.89,1.25,1.09.67,1.09.67a8.12,8.12,0,0,1,.3.79c0,.15-.38.17-.38.17-.36,0-8.36-.13-11.07-.19s-10.73-.38-12.39-.44a27.14,27.14,0,0,1-4.44-.44,29.93,29.93,0,0,1-3.25-.81c-.37-.12-.27-.34-.2-.64a.47.47,0,0,1,.46-.42C277.94,16,280.18,15.83,280.18,15.83Z" transform="translate(-9.2 -5.97)"></path><path class="cls-4" d="M307.77,17.93c-2.27,0-8.16-.08-10.36-.13-2.71-.07-10.73-.38-12.39-.44a28.66,28.66,0,0,1-4.44-.37c-1-.2-2.29-.51-2.94-.7" transform="translate(-9.2 -5.97)"></path><path class="cls-8" d="M268.22,10.87" transform="translate(-9.2 -5.97)"></path><path class="cls-8" d="M264.3,10.69c3.19.13,3.13.12,4.1.18a12,12,0,0,1,3.22.81,67.94,67.94,0,0,1,8.77,4.14" transform="translate(-9.2 -5.97)"></path><path class="cls-8" d="M277.18,14.1s2.84.68,5.65,1.62" transform="translate(-9.2 -5.97)"></path><path class="cls-8" d="M265.8,10.75a43.9,43.9,0,0,1,5.61,2.13,7,7,0,0,0,1.59.38,14.37,14.37,0,0,1,4.33,1.29c1.56.78,1.48.74,2.56,1.3" transform="translate(-9.2 -5.97)"></path><line class="cls-8" x1="264.15" y1="7.33" x2="264.15" y2="8.19"></line><line class="cls-8" x1="258.08" y1="5.26" x2="258.08" y2="5.8"></line><path class="cls-4" d="M251.33,10.33a15.54,15.54,0,0,1,2.59.9c1.31.6,13.5,6.35,28.67,13.76" transform="translate(-9.2 -5.97)"></path><path class="cls-4" d="M269.23,18.51S276,18,280.89,20.77l1,.6" transform="translate(-9.2 -5.97)"></path><path class="cls-4" d="M282,22.35" transform="translate(-9.2 -5.97)"></path><path class="cls-4" d="M271.45,19.58a17.89,17.89,0,0,1,6,.75s2.8,1,4.63,1.85" transform="translate(-9.2 -5.97)"></path><path class="cls-4" d="M207.85,15.71" transform="translate(-9.2 -5.97)"></path><path class="cls-4" d="M207.85,15.71c-.29-.09-.4-.13-.42-.3,0-.39.75-.56,1-.65.89-.31,1.77-.67,2.64-1a12.27,12.27,0,0,1,4.08-.74,22.06,22.06,0,0,1,2.44,0,14.71,14.71,0,0,1,4.21.73c.66.24,1.49.75,1.33,1.58a1.75,1.75,0,0,1-1.08,1.17,13.49,13.49,0,0,1-1.87.69c-.63.22-1.36.45-2,.62a18.18,18.18,0,0,1-2.08.4,5.71,5.71,0,0,1-2.43-.29c-.82-.26-1.59-.65-2.39-1s-1.46-.58-2.34-.84Z" transform="translate(-9.2 -5.97)"></path><path class="cls-8" d="M221.67,14.58a.59.59,0,0,1,.2.46c-.05.67-.75,1-1.5,1.35a12.47,12.47,0,0,1-4.85,1.2" transform="translate(-9.2 -5.97)"></path><path class="cls-4" d="M211.41,13.6a9.37,9.37,0,0,1,3.1-.29,23.07,23.07,0,0,1,4.85.35,5.57,5.57,0,0,1,2.31.92" transform="translate(-9.2 -5.97)"></path><path class="cls-8" d="M213.57,15.82c.05.12.2.27.62.41.85.27,2.44.75,3.26,1.09" transform="translate(-9.2 -5.97)"></path><path class="cls-4" d="M221.83,15.26a20.52,20.52,0,0,0-6.32-.69c-1.64.06-1.93,1-1.93,1a.22.22,0,0,0,0,.2" transform="translate(-9.2 -5.97)"></path><line class="cls-4" x1="206.16" y1="8.99" x2="206.16" y2="10.63"></line><path class="cls-4" d="M203,20.5a69.15,69.15,0,0,0,13.22-1.65C222,17.32,224,16.16,224,14.77c0,0,0-2.23-5.21-2.33s-5.95.27-7.46.77a30.62,30.62,0,0,0-4.44,1.85,16.45,16.45,0,0,1-7.39,1.85" transform="translate(-9.2 -5.97)"></path><path class="cls-4" d="M211.41,22.35s9.11,4.29,26,5.92,27.68,1.95,42.61,4.47" transform="translate(-9.2 -5.97)"></path><path class="cls-4" d="M222.44,17.66a54.2,54.2,0,0,1,21.86,1.2c11.22,3.16,14.37,4.22,20,5.61" transform="translate(-9.2 -5.97)"></path><path class="cls-8" d="M219.64,43.38a4.89,4.89,0,0,1,1.5-3.16c1.41-1.22,4.3-1.15,5.05-1.15s14.89.2,26.64.82,22.5,1.46,28.5,1.92" transform="translate(-9.2 -5.97)"></path><path class="cls-8" d="M281.72,41.89a6.68,6.68,0,0,1,4.26,2.5" transform="translate(-9.2 -5.97)"></path><path class="cls-8" d="M281.58,41.71a23.5,23.5,0,0,1-.53-5.72,15,15,0,0,1,2.33-7" transform="translate(-9.2 -5.97)"></path><line class="cls-4" x1="272.63" y1="34.19" x2="276.07" y2="34.4"></line><path class="cls-4" d="M89.1,12.91V14a1.34,1.34,0,0,1-.29.58" transform="translate(-9.2 -5.97)"></path><path class="cls-4" d="M91.8,12.78V14a1.59,1.59,0,0,1-.08.25" transform="translate(-9.2 -5.97)"></path><path class="cls-4" d="M94.08,12.68V13.8a.93.93,0,0,1,0,.13" transform="translate(-9.2 -5.97)"></path><line class="cls-4" x1="86.85" y1="6.7" x2="86.85" y2="7.67"></line><line class="cls-4" x1="88.3" y1="6.61" x2="88.3" y2="7.42"></line><path class="cls-8" d="M123.17,14.08s3.79,0,8.75,0" transform="translate(-9.2 -5.97)"></path><path class="cls-4" d="M186.2,40.65a1.21,1.21,0,0,0,.32.71,3.62,3.62,0,0,0,1.87,1.1c1,.18,21.38,2.9,31.21,2.81" transform="translate(-9.2 -5.97)"></path><path class="cls-4" d="M218.64,43.38a1.85,1.85,0,0,1-1.16.55,121.16,121.16,0,0,1-13-.22c-8.61-.7-16.43-1.94-16.43-1.94" transform="translate(-9.2 -5.97)"></path><path class="cls-8" d="M177.39,16.46a11,11,0,0,1,5.28-1.63,61.28,61.28,0,0,1,6.39.08,5.57,5.57,0,0,1,3.28,1.41l.82.92s.36.3-.27.31-3.44,0-3.44,0a3,3,0,0,0-1-1.28,6.72,6.72,0,0,0-2.81-.44,22.61,22.61,0,0,0-3.14.08A3.3,3.3,0,0,0,180.27,17a5,5,0,0,1-2.19-.13S177.2,16.68,177.39,16.46Z" transform="translate(-9.2 -5.97)"></path><path class="cls-8" d="M191.08,15.45a46.78,46.78,0,0,0,4.67-1.89,5.77,5.77,0,0,1,2.37-.61l11.48-.17" transform="translate(-9.2 -5.97)"></path><path class="cls-8" d="M195.38,13.66s-24.2-.08-51.14.17" transform="translate(-9.2 -5.97)"></path><path class="cls-8" d="M147,7.18V6.86a13.92,13.92,0,0,0-6.19,0,7.5,7.5,0,0,0-4.56,2.88,54.6,54.6,0,0,0-5.16,6.59s-.91,1.48-.34,2.38a2.59,2.59,0,0,0,2.33,1c.67,0,7.25-.48,7.25-.48s.56,0,1.73-2,2.83-4.29,5.54-9.19a1,1,0,0,0,.11-.52,1.06,1.06,0,0,0-.33-.39H147" transform="translate(-9.2 -5.97)"></path><path class="cls-4" d="M146.92,6.84s-3.11,4.59-6.8,10.46l.46,0" transform="translate(-9.2 -5.97)"></path><path class="cls-4" d="M147.17,7.17s-2.9,4.29-6.59,10.17Z" transform="translate(-9.2 -5.97)"></path><path class="cls-4" d="M147.74,7.68s0-.49-2.27,3.07L144,13.11" transform="translate(-9.2 -5.97)"></path><path class="cls-4" d="M140.44,19.2s-.24-.06.22-.82,2.89-4.62,3.18-5.08" transform="translate(-9.2 -5.97)"></path><path class="cls-8" d="M285.38,54.3c.33,1.9.63,4.07.9,6.57" transform="translate(-9.2 -5.97)"></path><path class="cls-8" d="M281.54,42.21s1.79,1.89,3.37,9.54" transform="translate(-9.2 -5.97)"></path><path class="cls-8" d="M272.58,45.47s-.36-1.75-.52-2.33a.93.93,0,0,1,.16-.82s.12-.24,1.31-.11c1,.1,3.91.32,6.47.67a1.39,1.39,0,0,1,1,.69,26.08,26.08,0,0,1,2.37,6.34.49.49,0,0,1-.5.67c-.71,0-8.1-.26-8.65-.31a.8.8,0,0,1-.93-.69c-.13-.81-.33-1.73-.46-2.58" transform="translate(-9.2 -5.97)"></path><path class="cls-8" d="M268,45.28l9.8.4s.42,0,.47.37.09.8.09.8.06.34-.45.34-9.64-.37-9.64-.37" transform="translate(-9.2 -5.97)"></path><path class="cls-8" d="M271.13,45.41c-.25,0-.24.19-.24.19l.12,1.11s0,.22.29.23" transform="translate(-9.2 -5.97)"></path><line class="cls-4" x1="264.12" y1="39.71" x2="264.31" y2="40.87"></line><line class="cls-4" x1="264.54" y1="39.72" x2="264.73" y2="40.87"></line><path class="cls-4" d="M148.66,62.39s36-.25,69.42.75" transform="translate(-9.2 -5.97)"></path><path class="cls-8" d="M147.74,73.5c0-24,3.21-34.39,3.49-35.54,0,0,.49-1.85-.31-2.8a5.22,5.22,0,0,0-2.26-1.36c-1.16-.47-8.18-2.5-13-3.87S120.55,26,119.1,25.64a4.64,4.64,0,0,0-2.11-.19" transform="translate(-9.2 -5.97)"></path><path class="cls-8" d="M151.05,35.36" transform="translate(-9.2 -5.97)"></path><path class="cls-8" d="M275,54.74" transform="translate(-9.2 -5.97)"></path><path class="cls-8" d="M280.2,58.73c-.11-1-.19-1.59-.25-2a2.2,2.2,0,0,0-1.42-1.83,4.46,4.46,0,0,0-.95-.27c-.85-.15-6.69-.53-6.69-.53" transform="translate(-9.2 -5.97)"></path><path class="cls-8" d="M280.7,64.06c-.13-1.63-.26-3.05-.39-4.22" transform="translate(-9.2 -5.97)"></path><path class="cls-8" d="M274.94,64.76c.06,1,.1,2.12.14,3.39a.87.87,0,0,0,1,.9c1,0,5,0,5,0q-.11-2.11-.24-4" transform="translate(-9.2 -5.97)"></path><path class="cls-8" d="M274.56,59.51c.11,1.13.23,2.58.33,4.47" transform="translate(-9.2 -5.97)"></path><path class="cls-8" d="M278.53,54.85l-3.42-.11s-1-.16-.91,1.19c0,.57.14,1.4.29,2.8" transform="translate(-9.2 -5.97)"></path><path class="cls-8" d="M285.85,59.56c0-.73-1.94-.67-4.11-.74s-6.16-.07-7.25-.09a3.05,3.05,0,0,0-1.47.19.42.42,0,0,0,0,.47s5.91.46,12.2.63C285.22,60,285.87,60.06,285.85,59.56Z" transform="translate(-9.2 -5.97)"></path><path class="cls-8" d="M286.28,64.82c0-.74-1.94-.67-4.11-.75S276,64,274.91,64a3.28,3.28,0,0,0-1.47.19.46.46,0,0,0,0,.48s5.92.46,12.21.62C285.65,65.27,286.3,65.32,286.28,64.82Z" transform="translate(-9.2 -5.97)"></path><path class="cls-8" d="M268.33,52.37s.71,0,1.51,0" transform="translate(-9.2 -5.97)"></path><path class="cls-4" d="M270.49,73.38V70a1.11,1.11,0,0,1,.25-.21,3.29,3.29,0,0,1,.49-.22,21.53,21.53,0,0,1,3.85-.86" transform="translate(-9.2 -5.97)"></path><path class="cls-4" d="M271.08,69.61s2.64-.42,4.35-.55" transform="translate(-9.2 -5.97)"></path><path class="cls-4" d="M281,69.05s3.59-.09,5.27-.09" transform="translate(-9.2 -5.97)"></path><path class="cls-4" d="M271.08,71.48v.46a1,1,0,0,0,.46.31,12.7,12.7,0,0,0,1.93.16c1.42.09,12.81.19,12.81.19" transform="translate(-9.2 -5.97)"></path><path class="cls-4" d="M271.08,71.48V71a.94.94,0,0,1,.46-.31,12.14,12.14,0,0,1,1.93-.17c1.42-.08,12.81-.19,12.81-.19" transform="translate(-9.2 -5.97)"></path><path class="cls-4" d="M271.49,71c1-.06,4.45-.2,14.86-.26" transform="translate(-9.2 -5.97)"></path><path class="cls-4" d="M271.49,71.91c1,.06,4.45.2,14.86.26" transform="translate(-9.2 -5.97)"></path><path class="cls-4" d="M270.84,70s6.15-.41,15.45-.36" transform="translate(-9.2 -5.97)"></path><path class="cls-4" d="M36.2,17.16S37.36,16,38,15.44a5.92,5.92,0,0,1,2.25-1.26c.7-.16,1.28-.26,2.05-.49a23,23,0,0,1,3.36-.87c1.23-.16,2-.12,2.89-.23s2-.28,3.15-.47,3.45-.45,4-.47h.54" transform="translate(-9.2 -5.97)"></path><path class="cls-8" d="M56.69,12.05h-.83l.46-.51h.41l.06-.27a58.87,58.87,0,0,0-7,.31c-3.06.32-7.64.83-10.22,1.19a12.76,12.76,0,0,0-6.4,3.11,55.07,55.07,0,0,0-4.75,5.64c-2.56,3.37-9.58,13.73-11.25,16.33A59,59,0,0,0,14,43.42a40.69,40.69,0,0,0-1.88,6.34A114.84,114.84,0,0,0,9.9,73.37" transform="translate(-9.2 -5.97)"></path><line class="cls-4" x1="38" y1="6.71" x2="37.97" y2="7.87"></line><path class="cls-4" d="M52.43,12l0,.35c0,.13-.12.21-.35.37a1.77,1.77,0,0,1-1,.4" transform="translate(-9.2 -5.97)"></path><path class="cls-8" d="M92.72,73.24c0,37.3,20.25,46.83,25.72,48.56a33.67,33.67,0,0,0,5.08.82" transform="translate(-9.2 -5.97)"></path><path class="cls-9" d="M219.64,73.25" transform="translate(-9.2 -5.97)"></path><path class="cls-8" d="M92.72,73.46" transform="translate(-9.2 -5.97)"></path><path class="cls-8" d="M239.33,114a5.83,5.83,0,0,1-2,.92l-3,.6c-7.74,1.54-29.9,3.95-40.11,5s-27.46,1.54-36.53,1.74c-6.53.15-22.25-.22-31.36-.3" transform="translate(-9.2 -5.97)"></path><path class="cls-8" d="M22.11,99.05c1.73.64,40.92,13.62,79.17,19.66,0,0,7.83,1.13,12.92,1.25" transform="translate(-9.2 -5.97)"></path><path class="cls-8" d="M18,73.36c0,14.79,2.77,23.77,2.77,23.77a3.22,3.22,0,0,0,1.37,1.92" transform="translate(-9.2 -5.97)"></path><path class="cls-9" d="M30.68,117.19" transform="translate(-9.2 -5.97)"></path><path class="cls-8" d="M22.11,99.05c.11.29,3.7,10.09,7,15.33s4,6.9,6.66,9.49a21.14,21.14,0,0,0,5.55,4c2.43,1.18,6.39,2.74,8.49,3.55a36.14,36.14,0,0,1,5.3,2.36l2.87,1.62s21.21.29,41.67.33a56.93,56.93,0,0,1,14-2.81c7.59-.5,12.06-.73,17.53-1" transform="translate(-9.2 -5.97)"></path><path class="cls-8" d="M21.8,98.11" transform="translate(-9.2 -5.97)"></path><path class="cls-9" d="M40.75,127.52" transform="translate(-9.2 -5.97)"></path><path class="cls-9" d="M152.29,116.05" transform="translate(-9.2 -5.97)"></path><path class="cls-8" d="M123,122.45" transform="translate(-9.2 -5.97)"></path><path class="cls-4" d="M195.38,121.62c-10.21,1-27.77,1.46-36.83,1.67-7.6.17-26.59-.13-35.16-.59" transform="translate(-9.2 -5.97)"></path><path class="cls-4" d="M240.45,114.65c0,.75-2.1,1.43-2.1,1.43" transform="translate(-9.2 -5.97)"></path><path class="cls-4" d="M123.35,122l24.81-6.55c.38-.1,9.18-2.48,13-3.13,0,0,6.23-1.35,27.19-2.14s36.75-.84,36.75-.84c24,0,55.67-2.76,55.67-2.76" transform="translate(-9.2 -5.97)"></path><path class="cls-8" d="M123.52,122.62l24.81-6.55s9.1-2.46,13-3.12a184.76,184.76,0,0,1,18.61-1.23c16.26-.42,50.16,1,58.07,1.74,2.4.23,2.47,1.23,2.47,1.23" transform="translate(-9.2 -5.97)"></path><path class="cls-4" d="M59.1,122c10.16.53,37.76,1.55,60,1.69" transform="translate(-9.2 -5.97)"></path><path class="cls-9" d="M223.62,83.09" transform="translate(-9.2 -5.97)"></path><path class="cls-9" d="M220.6,82.11" transform="translate(-9.2 -5.97)"></path><path class="cls-9" d="M220.08,81.79" transform="translate(-9.2 -5.97)"></path><path class="cls-9" d="M222.53,82.53" transform="translate(-9.2 -5.97)"></path><path class="cls-9" d="M26.23,73.37A5,5,0,0,1,26,75.14H24s-1.71-.33-1.71-1.77" transform="translate(-9.2 -5.97)"></path><path class="cls-9" d="M193.58,120.45s1-.77,5.92-8.66" transform="translate(-9.2 -5.97)"></path><path class="cls-4" d="M222.44,73.35v26.7c0,4.4,5.17,3.89,5.17,3.89l32.4-1.17s4.13-.79,4.91-8.91,1.25-15.86,1.25-20.32" transform="translate(-9.2 -5.97)"></path><path class="cls-9" d="M215.2,101.83" transform="translate(-9.2 -5.97)"></path><path class="cls-9" d="M220.92,82" transform="translate(-9.2 -5.97)"></path><path class="cls-8" d="M137.89,127.33a2.54,2.54,0,0,0-2.18-1.19h-4a2.47,2.47,0,0,0-2.53,2.41,2.24,2.24,0,0,0,.28,1.09,58.32,58.32,0,0,0,7.2,7.82" transform="translate(-9.2 -5.97)"></path><path class="cls-9" d="M224.1,107.48" transform="translate(-9.2 -5.97)"></path><path class="cls-9" d="M219.64,103.41" transform="translate(-9.2 -5.97)"></path><path class="cls-9" d="M219.64,73.46" transform="translate(-9.2 -5.97)"></path><path class="cls-4" d="M151.38,108.15S189,106,219.6,104" transform="translate(-9.2 -5.97)"></path><path class="cls-8" d="M269.57,73.51c0,19.58-2.85,29.92-3.14,31.14,0,0-.21.82-.37,1.4" transform="translate(-9.2 -5.97)"></path><path class="cls-8" d="M265,105.93" transform="translate(-9.2 -5.97)"></path><path class="cls-8" d="M224.1,107.48" transform="translate(-9.2 -5.97)"></path><line class="cls-8" x1="210.44" y1="67.38" x2="210.44" y2="97.44"></line><path class="cls-4" d="M45.38,110.71c-6.54-1.35-12.18.08-13.3,3.67-1.28,4.15,4,9.6,11.74,12.17a24.83,24.83,0,0,0,7.51,1.3" transform="translate(-9.2 -5.97)"></path><path class="cls-4" d="M53.16,120.09a12.53,12.53,0,0,0-4-5.32c-3.84-3.06-8.39-3.59-10.15-1.17s-.08,6.85,3.77,9.91,8.39,3.59,10.15,1.18a3.64,3.64,0,0,0,.38-.66" transform="translate(-9.2 -5.97)"></path><path class="cls-4" d="M54.65,119.93a15.58,15.58,0,0,0-4.8-6.14,15.7,15.7,0,0,0-5.56-2.93" transform="translate(-9.2 -5.97)"></path><path class="cls-4" d="M52.69,127.34a4.25,4.25,0,0,0,1.79-1.4,4.4,4.4,0,0,0,.81-2.14" transform="translate(-9.2 -5.97)"></path><path class="cls-4" d="M57.42,120.1l-5.94.37a8.72,8.72,0,0,0,.53,3.25l5.92-.48" transform="translate(-9.2 -5.97)"></path><path class="cls-4" d="M51.63,123.54a2.33,2.33,0,0,1-2.07-1.42" transform="translate(-9.2 -5.97)"></path><path class="cls-4" d="M49.21,122.08s-6.33-1.76-9-6.52" transform="translate(-9.2 -5.97)"></path><path class="cls-4" d="M49.42,122.08a1.17,1.17,0,0,1,.69-1.13" transform="translate(-9.2 -5.97)"></path><path class="cls-4" d="M51.45,122.21a8.5,8.5,0,0,0-1.66-1.75c-1.06-.84-3.63-4-7.58-5.32" transform="translate(-9.2 -5.97)"></path><path class="cls-4" d="M38.69,115.13s3.26-.53,9.7.72" transform="translate(-9.2 -5.97)"></path><polyline class="cls-4" points="40.13 109.34 39.58 110.04 39.71 110.89 41.73 110.95"></polyline><line class="cls-4" x1="40.23" y1="116.62" x2="34.59" y2="117.9"></line><path class="cls-13" d="M57.56,124.82c1.82-3.65-1.39-9.15-7.17-12.28s-12-2.72-13.77.92,1.38,9.15,7.16,12.28S55.73,128.46,57.56,124.82Z" transform="translate(-9.2 -5.97)"></path><path class="cls-8" d="M57.56,124.82c1.82-3.65-1.39-9.15-7.17-12.28s-12-2.72-13.77.92,1.38,9.15,7.16,12.28S55.73,128.46,57.56,124.82Z" transform="translate(-9.2 -5.97)"></path><path class="cls-9" d="M198.68,128.72" transform="translate(-9.2 -5.97)"></path><path class="cls-9" d="M194.35,120.45s4.69,4.9,4.69,8.09c0,0-.25,1.35-3,1.28" transform="translate(-9.2 -5.97)"></path><path class="cls-4" d="M195.35,121.62s16.34-1.27,25.84-2.62,14.29-2.13,17.16-2.92" transform="translate(-9.2 -5.97)"></path><path class="cls-9" d="M264.74,106.05" transform="translate(-9.2 -5.97)"></path><path class="cls-8" d="M192.92,129.74c4.13,0,9,.36,12.79,2.19,5.31,2.57,6.33,3.74,8,4s7.52.41,10,.41,20.44.25,40.38-.25l.36-.1c.26-.07.65-.2,1.15-.38,1-.36,6.48-2.56,8.4-3.29s2.84-1.21,4.05-1.57" transform="translate(-9.2 -5.97)"></path><path class="cls-8" d="M180.63,130.09c6.72-.18,7-.21,7.75-.24l.73,0" transform="translate(-9.2 -5.97)"></path><path class="cls-8" d="M143.54,131c17.09-.42,27.46-.69,33.84-.86" transform="translate(-9.2 -5.97)"></path><path class="cls-8" d="M312.52,73.35c0,7.59-.8,16.52-.8,16.52a141.54,141.54,0,0,1-2.79,19.32s-.45,2.15-.78,3.89" transform="translate(-9.2 -5.97)"></path><path class="cls-8" d="M59,134" transform="translate(-9.2 -5.97)"></path><path class="cls-8" d="M29.68,126" transform="translate(-9.2 -5.97)"></path><path class="cls-4" d="M10.81,73.34c0,7.23.92,16.15.92,16.15s1.19,7.76,1.89,10a29.18,29.18,0,0,0,3.31,7.15c1.62,2.56,7,11,9.05,13.85s5.61,6.73,8.58,8.33,11.56,4.25,17.69,4.95c0,0,1.73.16,3.24.25" transform="translate(-9.2 -5.97)"></path><path class="cls-4" d="M117.7,120.88" transform="translate(-9.2 -5.97)"></path><path class="cls-4" d="M241.75,115s19.58-.75,36.58-4.08" transform="translate(-9.2 -5.97)"></path><path class="cls-8" d="M57.93,135.38" transform="translate(-9.2 -5.97)"></path><path class="cls-8" d="M113.58,132.9a4,4,0,0,1,.75-2.08,37.36,37.36,0,0,1,4.87-6.17s.48-.46,1-.9,1.56-1.31,1.56-1.31" transform="translate(-9.2 -5.97)"></path><path class="cls-4" d="M100.39,134.71a58.76,58.76,0,0,1,12.16-2.06" transform="translate(-9.2 -5.97)"></path><path class="cls-4" d="M99.83,134.25s-8.46,0-13-.31a2.64,2.64,0,0,1-1.42-.37c-.37-.38-.31-.71.15-1.59s2.56-4.54,3.08-5.27a3.3,3.3,0,0,1,1.75-1.46,15.61,15.61,0,0,1,3-.69v-.13" transform="translate(-9.2 -5.97)"></path><path class="cls-8" d="M99.83,134.25v.46s-21.06-.12-29-.28a1.45,1.45,0,0,1-.94-.31c-.37-.34-.34-.56,0-1.22s3.34-5.49,4.94-6.7a5.11,5.11,0,0,1,3.87-1.49c2-.09,11.25-.25,14.64-.28l.11.5a15.63,15.63,0,0,0-3,.78c-.81.32-1,.84-1.49,1.51s-2.58,4.31-3,5.21-.36.89-.23,1a2.27,2.27,0,0,0,1.11.23c4.51.29,12.92.56,13,.56" transform="translate(-9.2 -5.97)"></path><path class="cls-4" d="M83.64,134.59s-4-.63-5-.8c0,0-1.48-.18-.89-1.14s3.08-5,3.6-5.62a3.66,3.66,0,0,1,2-1.46,27.61,27.61,0,0,1,3.27-.78" transform="translate(-9.2 -5.97)"></path><path class="cls-8" d="M86.36,131.67s10.51,1.37,11.82,1.61,1.34.22,1.32.87" transform="translate(-9.2 -5.97)"></path><path class="cls-8" d="M100.74,135.34a74.19,74.19,0,0,0,12.66-1.15,14.38,14.38,0,0,0,3.12-1,3.86,3.86,0,0,0,.78-.56" transform="translate(-9.2 -5.97)"></path><path class="cls-8" d="M113.4,134.19c.17,0,3.23.11,4.77,0a16.17,16.17,0,0,0,5.66-1.81" transform="translate(-9.2 -5.97)"></path><path class="cls-8" d="M305.23,93.7a.31.31,0,0,1-.15.26s-.3.21-.61.39a2.35,2.35,0,0,1-.91.19s-26.83.64-28.5.66-2.81.06-3.47,0a5.35,5.35,0,0,1-1.51-.52.37.37,0,0,1-.16-.3s0-.12.31-.43a8.76,8.76,0,0,1,.86-.72,1.67,1.67,0,0,1,.79-.14l8.78-.11a1.85,1.85,0,0,0,.61-.14,1.54,1.54,0,0,1,.9-.38l19.93-.18.62.75,1.76,0s.41,0,.49.09A.86.86,0,0,1,305.23,93.7Z" transform="translate(-9.2 -5.97)"></path><path class="cls-4" d="M270.33,94.36s16.89-.8,34.67-.61" transform="translate(-9.2 -5.97)"></path><path class="cls-8" d="M286.21,92.43c.09-8.4.16-19.05.16-19.05" transform="translate(-9.2 -5.97)"></path><path class="cls-8" d="M281.21,128.73S283,119.85,284,115s2.07-8.66,2.19-16.66c0-1,0-2.15.05-3.39" transform="translate(-9.2 -5.97)"></path><path class="cls-4" d="M287.15,92.17c.11-8.14.22-18.82.22-18.82" transform="translate(-9.2 -5.97)"></path><path class="cls-4" d="M282.46,128c.56-2.82,1.68-8.49,2.41-12,1-4.85,2.06-8.66,2.18-16.66,0-1.22,0-2.64.06-4.18" transform="translate(-9.2 -5.97)"></path><line class="cls-8" x1="288.88" y1="86.18" x2="288.88" y2="67.38"></line><line class="cls-8" x1="288.88" y1="121.9" x2="288.88" y2="88.85"></line><line class="cls-4" x1="294.75" y1="86.93" x2="294.75" y2="67.38"></line><line class="cls-4" x1="294.75" y1="121.9" x2="294.75" y2="88.69"></line><path class="cls-8" d="M307.77,127.78s.87-25.45.68-54.43" transform="translate(-9.2 -5.97)"></path><path class="cls-8" d="M280.18,130.9c2.79.18,7.86.19,10.57.17s4.17-.2,6.83-.42,8.95-1.09,9.89-1.25,1.09-.67,1.09-.67.27-.63.3-.78-.38-.17-.38-.17c-.36,0-8.36.12-11.07.18s-10.73.38-12.39.44a28.28,28.28,0,0,0-4.44.44,32.6,32.6,0,0,0-3.25.81c-.37.12-.27.34-.2.64a.47.47,0,0,0,.46.42C277.94,130.75,280.18,130.9,280.18,130.9Z" transform="translate(-9.2 -5.97)"></path><path class="cls-4" d="M307.77,128.81c-2.27,0-8.16.07-10.36.13-2.71.06-10.73.37-12.39.43a30,30,0,0,0-4.44.37c-1,.2-2.29.52-2.94.7" transform="translate(-9.2 -5.97)"></path><path class="cls-8" d="M268.22,135.86" transform="translate(-9.2 -5.97)"></path><path class="cls-8" d="M264.3,136c3.19-.13,3.13-.11,4.1-.18a12.33,12.33,0,0,0,3.22-.8,69.81,69.81,0,0,0,8.77-4.15" transform="translate(-9.2 -5.97)"></path><path class="cls-8" d="M277.18,132.63S280,132,282.83,131" transform="translate(-9.2 -5.97)"></path><path class="cls-8" d="M265.8,136a43.9,43.9,0,0,0,5.61-2.13,6.68,6.68,0,0,1,1.59-.37,14.74,14.74,0,0,0,4.33-1.3c1.56-.78,1.48-.74,2.56-1.3" transform="translate(-9.2 -5.97)"></path><line class="cls-8" x1="264.15" y1="127.46" x2="264.15" y2="126.6"></line><line class="cls-8" x1="258.08" y1="129.53" x2="258.08" y2="128.99"></line><path class="cls-4" d="M251.33,136.4a15.54,15.54,0,0,0,2.59-.9c1.31-.6,13.5-6.34,28.67-13.75" transform="translate(-9.2 -5.97)"></path><path class="cls-4" d="M269.23,128.22s6.79.51,11.66-2.26l1-.59" transform="translate(-9.2 -5.97)"></path><path class="cls-4" d="M282,124.38" transform="translate(-9.2 -5.97)"></path><path class="cls-4" d="M271.45,127.15a17.89,17.89,0,0,0,6-.75s2.8-1,4.63-1.85" transform="translate(-9.2 -5.97)"></path><path class="cls-4" d="M207.85,131" transform="translate(-9.2 -5.97)"></path><path class="cls-8" d="M207.85,131c-.29.09-.4.13-.42.31,0,.39.75.55,1,.64.89.31,1.77.67,2.64,1a12,12,0,0,0,4.08.74,19.86,19.86,0,0,0,2.44,0,14.71,14.71,0,0,0,4.21-.73c.66-.23,1.49-.75,1.33-1.58a1.77,1.77,0,0,0-1.08-1.17,14.91,14.91,0,0,0-1.87-.69c-.63-.22-1.36-.45-2-.62a18.15,18.15,0,0,0-2.08-.39,5.71,5.71,0,0,0-2.43.28c-.82.27-1.59.65-2.39,1a23.93,23.93,0,0,1-2.34.84Z" transform="translate(-9.2 -5.97)"></path><path class="cls-8" d="M221.86,131.82a.57.57,0,0,0,0-.13c-.05-.66-.73-1.06-1.48-1.42a13.44,13.44,0,0,0-4.87-1.13" transform="translate(-9.2 -5.97)"></path><path class="cls-4" d="M211.41,133.13a9.37,9.37,0,0,0,3.1.29,23.07,23.07,0,0,0,4.85-.35c1.16-.28,2.4-.66,2.5-1.25" transform="translate(-9.2 -5.97)"></path><path class="cls-4" d="M214.23,131.83a1.36,1.36,0,0,1-.65-.72s-.23-.33.61-.61,2.44-.75,3.26-1.09" transform="translate(-9.2 -5.97)"></path><path class="cls-8" d="M221.83,131.47a20.52,20.52,0,0,1-6.32.69,2.67,2.67,0,0,1-1.28-.33" transform="translate(-9.2 -5.97)"></path><line class="cls-4" x1="206.16" y1="125.83" x2="206.16" y2="124.43"></line><path class="cls-4" d="M203,126.23a69.15,69.15,0,0,1,13.22,1.65C222,129.41,224,130.57,224,132c0,0,0,2.23-5.21,2.33s-5.95-.26-7.46-.76a31.59,31.59,0,0,1-4.44-1.86,16.45,16.45,0,0,0-7.39-1.85" transform="translate(-9.2 -5.97)"></path><path class="cls-4" d="M211.41,124.38s9.11-4.29,26-5.92S265.07,116.52,280,114" transform="translate(-9.2 -5.97)"></path><path class="cls-4" d="M222.44,129.07a54,54,0,0,0,21.86-1.2c11.22-3.16,14.37-4.22,20-5.6" transform="translate(-9.2 -5.97)"></path><path class="cls-8" d="M219.64,103.35a4.89,4.89,0,0,0,1.5,3.16c1.41,1.22,4.3,1.16,5.05,1.16s14.89-.21,26.64-.83,22.5-1.46,28.5-1.92" transform="translate(-9.2 -5.97)"></path><path class="cls-8" d="M281.72,104.84a6.68,6.68,0,0,0,4.26-2.5" transform="translate(-9.2 -5.97)"></path><path class="cls-8" d="M281.58,105a23.39,23.39,0,0,0-.53,5.71,15,15,0,0,0,2.33,7.05" transform="translate(-9.2 -5.97)"></path><line class="cls-4" x1="272.63" y1="100.6" x2="276.07" y2="100.39"></line><path class="cls-4" d="M89.1,133.82v-1.06a1.34,1.34,0,0,0-.29-.58" transform="translate(-9.2 -5.97)"></path><path class="cls-4" d="M91.8,134v-1.19a1.59,1.59,0,0,0-.08-.25" transform="translate(-9.2 -5.97)"></path><path class="cls-4" d="M94.08,134.06v-1.13a.93.93,0,0,0,0-.13" transform="translate(-9.2 -5.97)"></path><line class="cls-4" x1="86.85" y1="128.09" x2="86.85" y2="127.12"></line><line class="cls-4" x1="88.3" y1="128.18" x2="88.3" y2="127.37"></line><path class="cls-8" d="M123.17,132.65s3.79,0,8.75,0" transform="translate(-9.2 -5.97)"></path><path class="cls-4" d="M186.2,106.09a1.23,1.23,0,0,1,.32-.72,3.56,3.56,0,0,1,1.87-1.09c1-.19,21.38-2.91,31.21-2.82" transform="translate(-9.2 -5.97)"></path><path class="cls-4" d="M218.64,103.35a1.81,1.81,0,0,0-1.16-.54,115.84,115.84,0,0,0-13,.22c-8.61.7-16.43,1.93-16.43,1.93" transform="translate(-9.2 -5.97)"></path><path class="cls-8" d="M177.39,130.27a10.83,10.83,0,0,0,5.28,1.63,58.46,58.46,0,0,0,6.39-.08,5.62,5.62,0,0,0,3.28-1.4l.82-.93s.36-.29-.27-.31-3.44,0-3.44,0a2.92,2.92,0,0,1-1,1.28,6.72,6.72,0,0,1-2.81.44,21.12,21.12,0,0,1-3.14-.08,3.28,3.28,0,0,1-2.26-1.12,4.83,4.83,0,0,0-2.19.12S177.2,130.05,177.39,130.27Z" transform="translate(-9.2 -5.97)"></path><path class="cls-8" d="M191.08,131.28a46.78,46.78,0,0,1,4.67,1.89,5.77,5.77,0,0,0,2.37.61l11.48.17" transform="translate(-9.2 -5.97)"></path><path class="cls-8" d="M195.38,133.07s-24.2.08-51.14-.17" transform="translate(-9.2 -5.97)"></path><path class="cls-8" d="M147,139.56v.31a13.92,13.92,0,0,1-6.19,0,7.41,7.41,0,0,1-4.56-2.88,54.6,54.6,0,0,1-5.16-6.59s-.91-1.48-.34-2.37a2.54,2.54,0,0,1,2.33-1c.67,0,7.25.47,7.25.47s.56,0,1.73,2,2.83,4.29,5.54,9.19a1,1,0,0,1,.11.52,1.12,1.12,0,0,1-.33.4H147" transform="translate(-9.2 -5.97)"></path><path class="cls-4" d="M146.92,139.89s-3.11-4.58-6.8-10.46l.46,0" transform="translate(-9.2 -5.97)"></path><path class="cls-4" d="M147.17,139.56s-2.9-4.29-6.59-10.16Z" transform="translate(-9.2 -5.97)"></path><path class="cls-4" d="M147.74,139.06s0,.48-2.27-3.08l-1.5-2.35" transform="translate(-9.2 -5.97)"></path><path class="cls-4" d="M140.44,127.54s-.24,0,.22.81,2.89,4.62,3.18,5.08" transform="translate(-9.2 -5.97)"></path><path class="cls-8" d="M285.38,92.43c.33-1.89.63-4.07.9-6.57" transform="translate(-9.2 -5.97)"></path><path class="cls-8" d="M281.54,104.53s1.79-1.89,3.37-9.55" transform="translate(-9.2 -5.97)"></path><path class="cls-8" d="M272.58,101.26s-.36,1.75-.52,2.33a1,1,0,0,0,.16.83s.12.23,1.31.11c1-.11,3.91-.33,6.47-.68a1.39,1.39,0,0,0,1-.68,26.41,26.41,0,0,0,2.37-6.35.49.49,0,0,0-.5-.67c-.71,0-8.1.27-8.65.31a.8.8,0,0,0-.93.69c-.13.81-.33,1.73-.46,2.58" transform="translate(-9.2 -5.97)"></path><path class="cls-8" d="M268,101.45l9.8-.4s.42,0,.47-.37.09-.8.09-.8.06-.34-.45-.34-9.64.38-9.64.38" transform="translate(-9.2 -5.97)"></path><path class="cls-8" d="M271.13,101.32c-.25,0-.24-.19-.24-.19L271,100s0-.22.29-.23" transform="translate(-9.2 -5.97)"></path><line class="cls-4" x1="264.12" y1="95.08" x2="264.31" y2="93.92"></line><line class="cls-4" x1="264.54" y1="95.07" x2="264.73" y2="93.92"></line><path class="cls-4" d="M148.66,84.34s36,.25,69.42-.75" transform="translate(-9.2 -5.97)"></path><path class="cls-8" d="M147.74,73.24c0,24,3.21,34.38,3.49,35.54,0,0,.49,1.84-.31,2.79a5.11,5.11,0,0,1-2.26,1.36c-1.16.47-8.18,2.5-13,3.88s-15.09,3.9-16.54,4.28a4.64,4.64,0,0,1-2.11.19" transform="translate(-9.2 -5.97)"></path><path class="cls-8" d="M151.05,111.37" transform="translate(-9.2 -5.97)"></path><path class="cls-8" d="M275,92" transform="translate(-9.2 -5.97)"></path><path class="cls-8" d="M280.2,88c-.11,1-.19,1.59-.25,2a2.17,2.17,0,0,1-1.42,1.82,4.46,4.46,0,0,1-.95.27c-.85.16-6.69.53-6.69.53" transform="translate(-9.2 -5.97)"></path><path class="cls-8" d="M280.7,82.68c-.13,1.62-.26,3-.39,4.22" transform="translate(-9.2 -5.97)"></path><path class="cls-8" d="M274.94,82c.06-1,.1-2.13.14-3.4a.87.87,0,0,1,1-.9c1,0,5,0,5,0q-.11,2.11-.24,4" transform="translate(-9.2 -5.97)"></path><path class="cls-8" d="M274.56,87.23c.11-1.14.23-2.59.33-4.48" transform="translate(-9.2 -5.97)"></path><path class="cls-8" d="M278.53,91.88l-3.42.11s-1,.16-.91-1.18c0-.58.14-1.4.29-2.8" transform="translate(-9.2 -5.97)"></path><path class="cls-8" d="M285.85,87.17c0,.73-1.94.67-4.11.74s-6.16.07-7.25.1a3.23,3.23,0,0,1-1.47-.19.43.43,0,0,1,0-.48s5.91-.46,12.2-.63C285.22,86.71,285.87,86.67,285.85,87.17Z" transform="translate(-9.2 -5.97)"></path><path class="cls-8" d="M286.28,81.92c0,.73-1.94.66-4.11.74s-6.16.07-7.26.09a3.28,3.28,0,0,1-1.47-.19.46.46,0,0,1,0-.48s5.92-.46,12.21-.62C285.65,81.46,286.3,81.42,286.28,81.92Z" transform="translate(-9.2 -5.97)"></path><path class="cls-8" d="M268.33,94.36s.71,0,1.51,0" transform="translate(-9.2 -5.97)"></path><path class="cls-4" d="M270.49,73.35v3.4a1.11,1.11,0,0,0,.25.21,3.29,3.29,0,0,0,.49.22,21.53,21.53,0,0,0,3.85.86" transform="translate(-9.2 -5.97)"></path><path class="cls-4" d="M271.08,77.12s2.64.42,4.35.56" transform="translate(-9.2 -5.97)"></path><path class="cls-4" d="M281,77.68s3.59.1,5.27.1" transform="translate(-9.2 -5.97)"></path><path class="cls-4" d="M271.08,75.25v-.46a1,1,0,0,1,.46-.31,12.7,12.7,0,0,1,1.93-.16c1.42-.09,12.81-.19,12.81-.19" transform="translate(-9.2 -5.97)"></path><path class="cls-4" d="M271.08,75.25v.46a1,1,0,0,0,.46.32,14.31,14.31,0,0,0,1.93.16c1.42.09,12.81.19,12.81.19" transform="translate(-9.2 -5.97)"></path><path class="cls-4" d="M271.49,75.74c1,.06,4.45.2,14.86.26" transform="translate(-9.2 -5.97)"></path><path class="cls-4" d="M271.49,74.82c1-.06,4.45-.2,14.86-.26" transform="translate(-9.2 -5.97)"></path><path class="cls-4" d="M270.84,76.76s6.15.41,15.45.36" transform="translate(-9.2 -5.97)"></path><path class="cls-4" d="M36.2,129.57s1.16,1.18,1.78,1.72a6.09,6.09,0,0,0,2.25,1.27c.7.15,1.28.26,2.05.48a21.78,21.78,0,0,0,3.36.87c1.23.17,2,.13,2.89.23s2,.28,3.15.47,3.45.45,4,.47l.54,0" transform="translate(-9.2 -5.97)"></path><path class="cls-8" d="M56.69,134.68h-.83l.46.52h.41l.06.26a58.87,58.87,0,0,1-7-.31c-3.06-.31-7.64-.83-10.22-1.19a12.84,12.84,0,0,1-6.4-3.1,56.87,56.87,0,0,1-4.75-5.65c-2.56-3.37-9.58-13.73-11.25-16.33a59,59,0,0,1-3.1-5.57A40.69,40.69,0,0,1,12.16,97,114.67,114.67,0,0,1,9.9,73.37" transform="translate(-9.2 -5.97)"></path><line class="cls-4" x1="38" y1="128.08" x2="37.97" y2="126.92"></line><path class="cls-4" d="M52.43,134.72l0-.35c0-.13-.12-.21-.35-.36a1.77,1.77,0,0,0-1-.4" transform="translate(-9.2 -5.97)"></path><path class="cls-14" d="M59.21,99.92s.7-.29.66-1.94-.44-8.25-.54-10.37v0l-4.45.16V85.29c-.32.38-.72.87-1.1,1.38a2.42,2.42,0,0,1-1.65,1.12L47.24,88V85.46c-.34.4-.82,1-1.27,1.58a2.48,2.48,0,0,1-1.66,1.13L40,88.36V85.5a4.16,4.16,0,0,0-.93,1.06,6.69,6.69,0,0,0-.47.86,2.16,2.16,0,0,0-.19,1.18s0,.07,0,.11,0,.26.06.43v0c.16,1.17.49,3.42.65,4.55,0,.13,0,.24,0,.34.11.63.2,1.15.28,1.45h0c.28,1,1.71,1.24,1.71,1.24s10,2.31,15.76,3.45A3.28,3.28,0,0,0,59.21,99.92Z" transform="translate(-9.2 -5.97)"></path><path class="cls-8" d="M40.58,98c-.8-.23-1.64-.49-2.11-.67a2.71,2.71,0,0,1-1.85-2.11A81.4,81.4,0,0,1,35,80.15" transform="translate(-9.2 -5.97)"></path><path class="cls-4" d="M91.8,109.42c-12.91-2.48-33-6.56-49.15-10.85L41,98.11" transform="translate(-9.2 -5.97)"></path><path class="cls-4" d="M39.19,96.41l-.31-.11a2,2,0,0,1-1.4-1.59A74.37,74.37,0,0,1,36,84.33a.57.57,0,0,1,0-.13" transform="translate(-9.2 -5.97)"></path><path class="cls-8" d="M41.15,96.76s10,2.31,15.76,3.45a3.28,3.28,0,0,0,2.3-.29s.7-.29.66-1.94-.44-8.25-.54-10.37" transform="translate(-9.2 -5.97)"></path><path class="cls-8" d="M40,85.49a2.78,2.78,0,0,1,.37-.27A2.63,2.63,0,0,1,42,84.9l5.67,0,7.44,0c3.76,0,7,0,7.43,0h.05a3,3,0,0,0,1.24-.22,6.12,6.12,0,0,0,1.47-1.35,22.13,22.13,0,0,0,1.39-2S67,81,66.5,81s-14.23-.63-30.17-1.88c0,0-1.34-.3-1.3,1" transform="translate(-9.2 -5.97)"></path><path class="cls-8" d="M38.39,88.6a2.16,2.16,0,0,1,.19-1.18,6.69,6.69,0,0,1,.47-.86A4.16,4.16,0,0,1,40,85.5" transform="translate(-9.2 -5.97)"></path><path class="cls-8" d="M38.46,89.14c0-.18,0-.32-.06-.43" transform="translate(-9.2 -5.97)"></path><path class="cls-8" d="M39.11,93.72c-.25-1.54-.52-3.53-.65-4.55" transform="translate(-9.2 -5.97)"></path><path class="cls-8" d="M39.44,95.51c-.08-.3-.17-.82-.28-1.45" transform="translate(-9.2 -5.97)"></path><path class="cls-8" d="M41.15,96.76s-1.43-.19-1.71-1.24" transform="translate(-9.2 -5.97)"></path><path class="cls-8" d="M38.37,88.47a.9.9,0,0,1,0,.13s0,.07,0,.11,0,.26.06.43v0c.16,1.17.49,3.42.65,4.55,0,.13,0,.24,0,.34l.05.34a9.26,9.26,0,0,0,.23,1.11h0a4.28,4.28,0,0,0,.4,1l.09.15A2.65,2.65,0,0,1,40.58,98" transform="translate(-9.2 -5.97)"></path><line class="cls-4" x1="27.39" y1="78.32" x2="28.83" y2="81.3"></line><path class="cls-8" d="M40,85.49h0v2.86l4.33-.19A2.48,2.48,0,0,0,46,87c.45-.6.93-1.18,1.27-1.58l.43-.51" transform="translate(-9.2 -5.97)"></path><path class="cls-8" d="M54.88,85.28l.23-.27" transform="translate(-9.2 -5.97)"></path><path class="cls-8" d="M47.24,85.46V88l4.89-.18a2.42,2.42,0,0,0,1.65-1.12c.38-.51.78-1,1.1-1.38" transform="translate(-9.2 -5.97)"></path><path class="cls-8" d="M54.88,85.28h0v2.43l4.45-.16.49,0a2.42,2.42,0,0,0,1.65-1.12c.37-.49.76-1,1.07-1.35" transform="translate(-9.2 -5.97)"></path><path class="cls-15" d="M59.21,46.83s.7.29.66,1.94-.44,8.25-.54,10.37v0L54.88,59v2.43c-.32-.38-.72-.87-1.1-1.38A2.46,2.46,0,0,0,52.13,59l-4.89-.18v2.51c-.34-.4-.82-1-1.27-1.58a2.48,2.48,0,0,0-1.66-1.13L40,58.39v2.87a4.23,4.23,0,0,1-.93-1.07,6.69,6.69,0,0,1-.47-.86,2.16,2.16,0,0,1-.19-1.18s0-.07,0-.11,0-.26.06-.43v0c.16-1.17.49-3.42.65-4.55,0-.13,0-.24,0-.34.11-.63.2-1.15.28-1.45h0c.28-1,1.71-1.24,1.71-1.24s10-2.31,15.76-3.45A3.28,3.28,0,0,1,59.21,46.83Z" transform="translate(-9.2 -5.97)"></path><path class="cls-8" d="M40.58,48.76c-.8.22-1.64.48-2.11.67a2.68,2.68,0,0,0-1.85,2.1A81.4,81.4,0,0,0,35,66.6" transform="translate(-9.2 -5.97)"></path><path class="cls-4" d="M91.8,37.33c-12.91,2.48-33,6.56-49.15,10.86L41,48.64" transform="translate(-9.2 -5.97)"></path><path class="cls-4" d="M39.19,50.34l-.31.11A2,2,0,0,0,37.48,52,74.6,74.6,0,0,0,36,62.43a.45.45,0,0,0,0,.12" transform="translate(-9.2 -5.97)"></path><path class="cls-8" d="M41.15,50s10-2.31,15.76-3.45a3.28,3.28,0,0,1,2.3.29s.7.29.66,1.94-.44,8.25-.54,10.37" transform="translate(-9.2 -5.97)"></path><path class="cls-8" d="M40,61.26a2.78,2.78,0,0,0,.37.27,2.63,2.63,0,0,0,1.65.32l5.67-.05,7.44,0c3.76,0,7,0,7.43,0h.05a2.83,2.83,0,0,1,1.24.23,5.82,5.82,0,0,1,1.47,1.34,22.13,22.13,0,0,1,1.39,2s.33.51-.19.53-14.23.63-30.17,1.88c0,0-1.34.3-1.3-1" transform="translate(-9.2 -5.97)"></path><path class="cls-8" d="M38.39,58.15a2.16,2.16,0,0,0,.19,1.18,6.69,6.69,0,0,0,.47.86A4.23,4.23,0,0,0,40,61.26" transform="translate(-9.2 -5.97)"></path><path class="cls-8" d="M38.46,57.61c0,.18,0,.33-.06.43" transform="translate(-9.2 -5.97)"></path><path class="cls-8" d="M39.11,53c-.25,1.54-.52,3.53-.65,4.55" transform="translate(-9.2 -5.97)"></path><path class="cls-8" d="M39.44,51.24c-.08.3-.17.82-.28,1.45" transform="translate(-9.2 -5.97)"></path><path class="cls-8" d="M41.15,50s-1.43.2-1.71,1.24" transform="translate(-9.2 -5.97)"></path><path class="cls-8" d="M38.37,58.28a.9.9,0,0,0,0-.13s0-.07,0-.11,0-.26.06-.43v0c.16-1.17.49-3.42.65-4.55,0-.13,0-.24,0-.34l.05-.34a9.26,9.26,0,0,1,.23-1.11h0a4.28,4.28,0,0,1,.4-1l.09-.15a2.66,2.66,0,0,0,.65-1.34" transform="translate(-9.2 -5.97)"></path><line class="cls-4" x1="27.39" y1="56.49" x2="28.83" y2="53.51"></line><path class="cls-8" d="M40,61.26h0V58.39l4.33.19A2.48,2.48,0,0,1,46,59.71c.45.6.93,1.18,1.27,1.58l.43.51" transform="translate(-9.2 -5.97)"></path><path class="cls-8" d="M54.88,61.47l.23.27" transform="translate(-9.2 -5.97)"></path><path class="cls-8" d="M47.24,61.29V58.78l4.89.18a2.46,2.46,0,0,1,1.65,1.12c.38.51.78,1,1.1,1.38" transform="translate(-9.2 -5.97)"></path><path class="cls-8" d="M54.88,61.47h0V59l4.45.16.49,0a2.46,2.46,0,0,1,1.65,1.12c.37.49.76,1,1.07,1.36" transform="translate(-9.2 -5.97)"></path><path class="cls-4" d="M67.36,81s3.41.15,5.06.18" transform="translate(-9.2 -5.97)"></path></svg>